<?xml version="1.0" encoding="UTF-8" standalone="no"?>
<svg
   xmlns:svg="http://www.w3.org/2000/svg"
   xmlns="http://www.w3.org/2000/svg"
   viewBox="186.36 8.75 300.00 247.50"

>
    <g transform="scale(11.363636363636363, -11.363636363636363)   translate(29.6,-11.66)" stroke-width="0.5"  fill="none">
       <!-- hidden lines -->
       <g  stroke="rgb(80,80,80)" fill="none" stroke-dasharray="0.5,0.5" >
			<path d="M12.0,-9.9 L12.0,9.9 " />
			<path d="M-12.0,-9.9 L12.0,-9.9 " />
			<path d="M12.0,9.9 L-12.0,9.9 " />
			<path d="M-12.0,9.9 L-12.0,-9.9 " />
			<path d="M-10.15,-8.85 L-10.15,-7.1499999999999995 " />
			<path d="M-10.15,-7.15 L-11.85,-7.15 " />
			<path d="M-11.85,-7.15 L-11.85,-8.85 " />
			<path d="M-11.85,-8.85 L-10.15,-8.85 " />
			<path d="M-8.15,-8.85 L-8.15,-7.1499999999999995 " />
			<path d="M-8.15,-7.15 L-9.85,-7.15 " />
			<path d="M-9.85,-7.15 L-9.85,-8.85 " />
			<path d="M-9.85,-8.85 L-8.15,-8.85 " />
			<path d="M-6.15,-8.85 L-6.15,-7.1499999999999995 " />
			<path d="M-6.15,-7.15 L-7.8500000000000005,-7.15 " />
			<path d="M-7.85,-7.15 L-7.85,-8.85 " />
			<path d="M-7.85,-8.85 L-6.1499999999999995,-8.85 " />
			<path d="M-10.15,-6.85 L-10.15,-5.1499999999999995 " />
			<path d="M-10.15,-5.15 L-11.85,-5.15 " />
			<path d="M-11.85,-5.15 L-11.85,-6.8500000000000005 " />
			<path d="M-11.85,-6.85 L-10.15,-6.85 " />
			<path d="M-8.15,-6.85 L-8.15,-5.1499999999999995 " />
			<path d="M-8.15,-5.15 L-9.85,-5.15 " />
			<path d="M-9.85,-5.15 L-9.85,-6.8500000000000005 " />
			<path d="M-9.85,-6.85 L-8.15,-6.85 " />
			<path d="M-6.15,-6.85 L-6.15,-5.1499999999999995 " />
			<path d="M-6.15,-5.15 L-7.8500000000000005,-5.15 " />
			<path d="M-7.85,-5.15 L-7.85,-6.8500000000000005 " />
			<path d="M-7.85,-6.85 L-6.1499999999999995,-6.85 " />
			<path d="M-4.15,-8.85 L-4.15,-7.1499999999999995 " />
			<path d="M-4.15,-7.15 L-5.8500000000000005,-7.15 " />
			<path d="M-5.85,-7.15 L-5.85,-8.85 " />
			<path d="M-5.85,-8.85 L-4.1499999999999995,-8.85 " />
			<path d="M-2.15,-8.85 L-2.15,-7.1499999999999995 " />
			<path d="M-2.15,-7.15 L-3.8499999999999996,-7.15 " />
			<path d="M-3.85,-7.15 L-3.85,-8.85 " />
			<path d="M-3.85,-8.85 L-2.1500000000000004,-8.85 " />
			<path d="M-0.15000000000000002,-8.85 L-0.15000000000000002,-7.1499999999999995 " />
			<path d="M-0.15000000000000002,-7.15 L-1.85,-7.15 " />
			<path d="M-1.85,-7.15 L-1.85,-8.85 " />
			<path d="M-1.85,-8.85 L-0.15000000000000013,-8.85 " />
			<path d="M-4.15,-6.85 L-4.15,-5.1499999999999995 " />
			<path d="M-4.15,-5.15 L-5.8500000000000005,-5.15 " />
			<path d="M-5.85,-5.15 L-5.85,-6.8500000000000005 " />
			<path d="M-5.85,-6.85 L-4.1499999999999995,-6.85 " />
			<path d="M-2.15,-6.85 L-2.15,-5.1499999999999995 " />
			<path d="M-2.15,-5.15 L-3.8499999999999996,-5.15 " />
			<path d="M-3.85,-5.15 L-3.85,-6.8500000000000005 " />
			<path d="M-3.85,-6.85 L-2.1500000000000004,-6.85 " />
			<path d="M-0.15000000000000002,-6.85 L-0.15000000000000002,-5.1499999999999995 " />
			<path d="M-0.15000000000000002,-5.15 L-1.85,-5.15 " />
			<path d="M-1.85,-5.15 L-1.85,-6.8500000000000005 " />
			<path d="M-1.85,-6.85 L-0.15000000000000013,-6.85 " />
			<path d="M-10.15,-4.85 L-10.15,-3.1499999999999995 " />
			<path d="M-10.15,-3.15 L-11.85,-3.15 " />
			<path d="M-11.85,-3.15 L-11.85,-4.85 " />
			<path d="M-11.85,-4.85 L-10.15,-4.85 " />
			<path d="M-8.15,-4.85 L-8.15,-3.1499999999999995 " />
			<path d="M-8.15,-3.15 L-9.85,-3.15 " />
			<path d="M-9.85,-3.15 L-9.85,-4.85 " />
			<path d="M-9.85,-4.85 L-8.15,-4.85 " />
			<path d="M-6.15,-4.85 L-6.15,-3.1499999999999995 " />
			<path d="M-6.15,-3.15 L-7.8500000000000005,-3.15 " />
			<path d="M-7.85,-3.15 L-7.85,-4.85 " />
			<path d="M-7.85,-4.85 L-6.1499999999999995,-4.85 " />
			<path d="M-10.15,-2.85 L-10.15,-1.1500000000000001 " />
			<path d="M-10.15,-1.15 L-11.85,-1.15 " />
			<path d="M-11.85,-1.15 L-11.85,-2.8499999999999996 " />
			<path d="M-11.85,-2.85 L-10.15,-2.85 " />
			<path d="M-8.15,-2.85 L-8.15,-1.1500000000000001 " />
			<path d="M-8.15,-1.15 L-9.85,-1.15 " />
			<path d="M-9.85,-1.15 L-9.85,-2.8499999999999996 " />
			<path d="M-9.85,-2.85 L-8.15,-2.85 " />
			<path d="M-6.15,-2.85 L-6.15,-1.1500000000000001 " />
			<path d="M-6.15,-1.15 L-7.8500000000000005,-1.15 " />
			<path d="M-7.85,-1.15 L-7.85,-2.8499999999999996 " />
			<path d="M-7.85,-2.85 L-6.1499999999999995,-2.85 " />
			<path d="M-4.15,-4.85 L-4.15,-3.1499999999999995 " />
			<path d="M-4.15,-3.15 L-5.8500000000000005,-3.15 " />
			<path d="M-5.85,-3.15 L-5.85,-4.85 " />
			<path d="M-5.85,-4.85 L-4.1499999999999995,-4.85 " />
			<path d="M-2.15,-4.85 L-2.15,-3.1499999999999995 " />
			<path d="M-2.15,-3.15 L-3.8499999999999996,-3.15 " />
			<path d="M-3.85,-3.15 L-3.85,-4.85 " />
			<path d="M-3.85,-4.85 L-2.1500000000000004,-4.85 " />
			<path d="M-0.15000000000000002,-4.85 L-0.15000000000000002,-3.1499999999999995 " />
			<path d="M-0.15000000000000002,-3.15 L-1.85,-3.15 " />
			<path d="M-1.85,-3.15 L-1.85,-4.85 " />
			<path d="M-1.85,-4.85 L-0.15000000000000013,-4.85 " />
			<path d="M-4.15,-2.85 L-4.15,-1.1500000000000001 " />
			<path d="M-4.15,-1.15 L-5.8500000000000005,-1.15 " />
			<path d="M-5.85,-1.15 L-5.85,-2.8499999999999996 " />
			<path d="M-5.85,-2.85 L-4.1499999999999995,-2.85 " />
			<path d="M-2.15,-2.85 L-2.15,-1.1500000000000001 " />
			<path d="M-2.15,-1.15 L-3.8499999999999996,-1.15 " />
			<path d="M-3.85,-1.15 L-3.85,-2.8499999999999996 " />
			<path d="M-3.85,-2.85 L-2.1500000000000004,-2.85 " />
			<path d="M-0.15000000000000002,-2.85 L-0.15000000000000002,-1.1500000000000001 " />
			<path d="M-0.15000000000000002,-1.15 L-1.85,-1.15 " />
			<path d="M-1.85,-1.15 L-1.85,-2.8499999999999996 " />
			<path d="M-1.85,-2.85 L-0.15000000000000013,-2.85 " />
			<path d="M1.85,-8.85 L1.85,-7.1499999999999995 " />
			<path d="M1.85,-7.15 L0.15000000000000013,-7.15 " />
			<path d="M0.15000000000000002,-7.15 L0.15000000000000002,-8.85 " />
			<path d="M0.15000000000000002,-8.85 L1.85,-8.85 " />
			<path d="M3.85,-8.85 L3.85,-7.1499999999999995 " />
			<path d="M3.85,-7.15 L2.1500000000000004,-7.15 " />
			<path d="M2.15,-7.15 L2.15,-8.85 " />
			<path d="M2.15,-8.85 L3.8499999999999996,-8.85 " />
			<path d="M5.85,-8.85 L5.85,-7.1499999999999995 " />
			<path d="M5.85,-7.15 L4.1499999999999995,-7.15 " />
			<path d="M4.15,-7.15 L4.15,-8.85 " />
			<path d="M4.15,-8.85 L5.8500000000000005,-8.85 " />
			<path d="M1.85,-6.85 L1.85,-5.1499999999999995 " />
			<path d="M1.85,-5.15 L0.15000000000000013,-5.15 " />
			<path d="M0.15000000000000002,-5.15 L0.15000000000000002,-6.8500000000000005 " />
			<path d="M0.15000000000000002,-6.85 L1.85,-6.85 " />
			<path d="M3.85,-6.85 L3.85,-5.1499999999999995 " />
			<path d="M3.85,-5.15 L2.1500000000000004,-5.15 " />
			<path d="M2.15,-5.15 L2.15,-6.8500000000000005 " />
			<path d="M2.15,-6.85 L3.8499999999999996,-6.85 " />
			<path d="M5.85,-6.85 L5.85,-5.1499999999999995 " />
			<path d="M5.85,-5.15 L4.1499999999999995,-5.15 " />
			<path d="M4.15,-5.15 L4.15,-6.8500000000000005 " />
			<path d="M4.15,-6.85 L5.8500000000000005,-6.85 " />
			<path d="M7.85,-8.85 L7.85,-7.1499999999999995 " />
			<path d="M7.85,-7.15 L6.1499999999999995,-7.15 " />
			<path d="M6.15,-7.15 L6.15,-8.85 " />
			<path d="M6.15,-8.85 L7.8500000000000005,-8.85 " />
			<path d="M9.85,-8.85 L9.85,-7.1499999999999995 " />
			<path d="M9.85,-7.15 L8.15,-7.15 " />
			<path d="M8.15,-7.15 L8.15,-8.85 " />
			<path d="M8.15,-8.85 L9.85,-8.85 " />
			<path d="M11.85,-8.85 L11.85,-7.1499999999999995 " />
			<path d="M11.85,-7.15 L10.15,-7.15 " />
			<path d="M10.15,-7.15 L10.15,-8.85 " />
			<path d="M10.15,-8.85 L11.85,-8.85 " />
			<path d="M7.85,-6.85 L7.85,-5.1499999999999995 " />
			<path d="M7.85,-5.15 L6.1499999999999995,-5.15 " />
			<path d="M6.15,-5.15 L6.15,-6.8500000000000005 " />
			<path d="M6.15,-6.85 L7.8500000000000005,-6.85 " />
			<path d="M9.85,-6.85 L9.85,-5.1499999999999995 " />
			<path d="M9.85,-5.15 L8.15,-5.15 " />
			<path d="M8.15,-5.15 L8.15,-6.8500000000000005 " />
			<path d="M8.15,-6.85 L9.85,-6.85 " />
			<path d="M11.85,-6.85 L11.85,-5.1499999999999995 " />
			<path d="M11.85,-5.15 L10.15,-5.15 " />
			<path d="M10.15,-5.15 L10.15,-6.8500000000000005 " />
			<path d="M10.15,-6.85 L11.85,-6.85 " />
			<path d="M1.85,-4.85 L1.85,-3.1499999999999995 " />
			<path d="M1.85,-3.15 L0.15000000000000013,-3.15 " />
			<path d="M0.15000000000000002,-3.15 L0.15000000000000002,-4.85 " />
			<path d="M0.15000000000000002,-4.85 L1.85,-4.85 " />
			<path d="M3.85,-4.85 L3.85,-3.1499999999999995 " />
			<path d="M3.85,-3.15 L2.1500000000000004,-3.15 " />
			<path d="M2.15,-3.15 L2.15,-4.85 " />
			<path d="M2.15,-4.85 L3.8499999999999996,-4.85 " />
			<path d="M5.85,-4.85 L5.85,-3.1499999999999995 " />
			<path d="M5.85,-3.15 L4.1499999999999995,-3.15 " />
			<path d="M4.15,-3.15 L4.15,-4.85 " />
			<path d="M4.15,-4.85 L5.8500000000000005,-4.85 " />
			<path d="M1.85,-2.85 L1.85,-1.1500000000000001 " />
			<path d="M1.85,-1.15 L0.15000000000000013,-1.15 " />
			<path d="M0.15000000000000002,-1.15 L0.15000000000000002,-2.8499999999999996 " />
			<path d="M0.15000000000000002,-2.85 L1.85,-2.85 " />
			<path d="M3.85,-2.85 L3.85,-1.1500000000000001 " />
			<path d="M3.85,-1.15 L2.1500000000000004,-1.15 " />
			<path d="M2.15,-1.15 L2.15,-2.8499999999999996 " />
			<path d="M2.15,-2.85 L3.8499999999999996,-2.85 " />
			<path d="M5.85,-2.85 L5.85,-1.1500000000000001 " />
			<path d="M5.85,-1.15 L4.1499999999999995,-1.15 " />
			<path d="M4.15,-1.15 L4.15,-2.8499999999999996 " />
			<path d="M4.15,-2.85 L5.8500000000000005,-2.85 " />
			<path d="M7.85,-4.85 L7.85,-3.1499999999999995 " />
			<path d="M7.85,-3.15 L6.1499999999999995,-3.15 " />
			<path d="M6.15,-3.15 L6.15,-4.85 " />
			<path d="M6.15,-4.85 L7.8500000000000005,-4.85 " />
			<path d="M9.85,-4.85 L9.85,-3.1499999999999995 " />
			<path d="M9.85,-3.15 L8.15,-3.15 " />
			<path d="M8.15,-3.15 L8.15,-4.85 " />
			<path d="M8.15,-4.85 L9.85,-4.85 " />
			<path d="M11.85,-4.85 L11.85,-3.1499999999999995 " />
			<path d="M11.85,-3.15 L10.15,-3.15 " />
			<path d="M10.15,-3.15 L10.15,-4.85 " />
			<path d="M10.15,-4.85 L11.85,-4.85 " />
			<path d="M7.85,-2.85 L7.85,-1.1500000000000001 " />
			<path d="M7.85,-1.15 L6.1499999999999995,-1.15 " />
			<path d="M6.15,-1.15 L6.15,-2.8499999999999996 " />
			<path d="M6.15,-2.85 L7.8500000000000005,-2.85 " />
			<path d="M9.85,-2.85 L9.85,-1.1500000000000001 " />
			<path d="M9.85,-1.15 L8.15,-1.15 " />
			<path d="M8.15,-1.15 L8.15,-2.8499999999999996 " />
			<path d="M8.15,-2.85 L9.85,-2.85 " />
			<path d="M11.85,-2.85 L11.85,-1.1500000000000001 " />
			<path d="M11.85,-1.15 L10.15,-1.15 " />
			<path d="M10.15,-1.15 L10.15,-2.8499999999999996 " />
			<path d="M10.15,-2.85 L11.85,-2.85 " />
			<path d="M-10.15,-0.85 L-10.15,0.85 " />
			<path d="M-10.15,0.85 L-11.85,0.85 " />
			<path d="M-11.85,0.85 L-11.85,-0.85 " />
			<path d="M-11.85,-0.85 L-10.15,-0.85 " />
			<path d="M-8.15,-0.85 L-8.15,0.85 " />
			<path d="M-8.15,0.85 L-9.85,0.85 " />
			<path d="M-9.85,0.85 L-9.85,-0.85 " />
			<path d="M-9.85,-0.85 L-8.15,-0.85 " />
			<path d="M-10.15,1.15 L-10.15,2.8499999999999996 " />
			<path d="M-10.15,2.85 L-11.85,2.85 " />
			<path d="M-11.85,2.85 L-11.85,1.1500000000000001 " />
			<path d="M-11.85,1.15 L-10.15,1.15 " />
			<path d="M-8.15,1.15 L-8.15,2.8499999999999996 " />
			<path d="M-8.15,2.85 L-9.85,2.85 " />
			<path d="M-9.85,2.85 L-9.85,1.1500000000000001 " />
			<path d="M-9.85,1.15 L-8.15,1.15 " />
			<path d="M-6.15,-0.85 L-6.15,0.85 " />
			<path d="M-6.15,0.85 L-7.8500000000000005,0.85 " />
			<path d="M-7.85,0.85 L-7.85,-0.85 " />
			<path d="M-7.85,-0.85 L-6.1499999999999995,-0.85 " />
			<path d="M-6.15,1.15 L-6.15,2.8499999999999996 " />
			<path d="M-6.15,2.85 L-7.8500000000000005,2.85 " />
			<path d="M-7.85,2.85 L-7.85,1.1500000000000001 " />
			<path d="M-7.85,1.15 L-6.1499999999999995,1.15 " />
			<path d="M-10.15,3.15 L-10.15,4.85 " />
			<path d="M-10.15,4.85 L-11.85,4.85 " />
			<path d="M-11.85,4.85 L-11.85,3.1499999999999995 " />
			<path d="M-11.85,3.15 L-10.15,3.15 " />
			<path d="M-8.15,3.15 L-8.15,4.85 " />
			<path d="M-8.15,4.85 L-9.85,4.85 " />
			<path d="M-9.85,4.85 L-9.85,3.1499999999999995 " />
			<path d="M-9.85,3.15 L-8.15,3.15 " />
			<path d="M-6.15,3.15 L-6.15,4.85 " />
			<path d="M-6.15,4.85 L-7.8500000000000005,4.85 " />
			<path d="M-7.85,4.85 L-7.85,3.1499999999999995 " />
			<path d="M-7.85,3.15 L-6.1499999999999995,3.15 " />
			<path d="M-4.15,-0.85 L-4.15,0.85 " />
			<path d="M-4.15,0.85 L-5.8500000000000005,0.85 " />
			<path d="M-5.85,0.85 L-5.85,-0.85 " />
			<path d="M-5.85,-0.85 L-4.1499999999999995,-0.85 " />
			<path d="M-2.15,-0.85 L-2.15,0.85 " />
			<path d="M-2.15,0.85 L-3.8499999999999996,0.85 " />
			<path d="M-3.85,0.85 L-3.85,-0.85 " />
			<path d="M-3.85,-0.85 L-2.1500000000000004,-0.85 " />
			<path d="M-4.15,1.15 L-4.15,2.8499999999999996 " />
			<path d="M-4.15,2.85 L-5.8500000000000005,2.85 " />
			<path d="M-5.85,2.85 L-5.85,1.1500000000000001 " />
			<path d="M-5.85,1.15 L-4.1499999999999995,1.15 " />
			<path d="M-2.15,1.15 L-2.15,2.8499999999999996 " />
			<path d="M-2.15,2.85 L-3.8499999999999996,2.85 " />
			<path d="M-3.85,2.85 L-3.85,1.1500000000000001 " />
			<path d="M-3.85,1.15 L-2.1500000000000004,1.15 " />
			<path d="M-0.15000000000000002,-0.85 L-0.15000000000000002,0.85 " />
			<path d="M-0.15000000000000002,0.85 L-1.85,0.85 " />
			<path d="M-1.85,0.85 L-1.85,-0.85 " />
			<path d="M-1.85,-0.85 L-0.15000000000000013,-0.85 " />
			<path d="M-0.15000000000000002,1.15 L-0.15000000000000002,2.8499999999999996 " />
			<path d="M-0.15000000000000002,2.85 L-1.85,2.85 " />
			<path d="M-1.85,2.85 L-1.85,1.1500000000000001 " />
			<path d="M-1.85,1.15 L-0.15000000000000013,1.15 " />
			<path d="M-4.15,3.15 L-4.15,4.85 " />
			<path d="M-4.15,4.85 L-5.8500000000000005,4.85 " />
			<path d="M-5.85,4.85 L-5.85,3.1499999999999995 " />
			<path d="M-5.85,3.15 L-4.1499999999999995,3.15 " />
			<path d="M-2.15,3.15 L-2.15,4.85 " />
			<path d="M-2.15,4.85 L-3.8499999999999996,4.85 " />
			<path d="M-3.85,4.85 L-3.85,3.1499999999999995 " />
			<path d="M-3.85,3.15 L-2.1500000000000004,3.15 " />
			<path d="M-0.15000000000000002,3.15 L-0.15000000000000002,4.85 " />
			<path d="M-0.15000000000000002,4.85 L-1.85,4.85 " />
			<path d="M-1.85,4.85 L-1.85,3.1499999999999995 " />
			<path d="M-1.85,3.15 L-0.15000000000000013,3.15 " />
			<path d="M-10.15,5.15 L-10.15,6.8500000000000005 " />
			<path d="M-10.15,6.85 L-11.85,6.85 " />
			<path d="M-11.85,6.85 L-11.85,5.1499999999999995 " />
			<path d="M-11.85,5.15 L-10.15,5.15 " />
			<path d="M-8.15,5.15 L-8.15,6.8500000000000005 " />
			<path d="M-8.15,6.85 L-9.85,6.85 " />
			<path d="M-9.85,6.85 L-9.85,5.1499999999999995 " />
			<path d="M-9.85,5.15 L-8.15,5.15 " />
			<path d="M-6.15,5.15 L-6.15,6.8500000000000005 " />
			<path d="M-6.15,6.85 L-7.8500000000000005,6.85 " />
			<path d="M-7.85,6.85 L-7.85,5.1499999999999995 " />
			<path d="M-7.85,5.15 L-6.1499999999999995,5.15 " />
			<path d="M-10.15,7.15 L-10.15,8.85 " />
			<path d="M-10.15,8.85 L-11.85,8.85 " />
			<path d="M-11.85,8.85 L-11.85,7.1499999999999995 " />
			<path d="M-11.85,7.15 L-10.15,7.15 " />
			<path d="M-8.15,7.15 L-8.15,8.85 " />
			<path d="M-8.15,8.85 L-9.85,8.85 " />
			<path d="M-9.85,8.85 L-9.85,7.1499999999999995 " />
			<path d="M-9.85,7.15 L-8.15,7.15 " />
			<path d="M-6.15,7.15 L-6.15,8.85 " />
			<path d="M-6.15,8.85 L-7.8500000000000005,8.85 " />
			<path d="M-7.85,8.85 L-7.85,7.1499999999999995 " />
			<path d="M-7.85,7.15 L-6.1499999999999995,7.15 " />
			<path d="M-4.15,5.15 L-4.15,6.8500000000000005 " />
			<path d="M-4.15,6.85 L-5.8500000000000005,6.85 " />
			<path d="M-5.85,6.85 L-5.85,5.1499999999999995 " />
			<path d="M-5.85,5.15 L-4.1499999999999995,5.15 " />
			<path d="M-2.15,5.15 L-2.15,6.8500000000000005 " />
			<path d="M-2.15,6.85 L-3.8499999999999996,6.85 " />
			<path d="M-3.85,6.85 L-3.85,5.1499999999999995 " />
			<path d="M-3.85,5.15 L-2.1500000000000004,5.15 " />
			<path d="M-0.15000000000000002,5.15 L-0.15000000000000002,6.8500000000000005 " />
			<path d="M-0.15000000000000002,6.85 L-1.85,6.85 " />
			<path d="M-1.85,6.85 L-1.85,5.1499999999999995 " />
			<path d="M-1.85,5.15 L-0.15000000000000013,5.15 " />
			<path d="M-4.15,7.15 L-4.15,8.85 " />
			<path d="M-4.15,8.85 L-5.8500000000000005,8.85 " />
			<path d="M-5.85,8.85 L-5.85,7.1499999999999995 " />
			<path d="M-5.85,7.15 L-4.1499999999999995,7.15 " />
			<path d="M-2.15,7.15 L-2.15,8.85 " />
			<path d="M-2.15,8.85 L-3.8499999999999996,8.85 " />
			<path d="M-3.85,8.85 L-3.85,7.1499999999999995 " />
			<path d="M-3.85,7.15 L-2.1500000000000004,7.15 " />
			<path d="M-0.15000000000000002,7.15 L-0.15000000000000002,8.85 " />
			<path d="M-0.15000000000000002,8.85 L-1.85,8.85 " />
			<path d="M-1.85,8.85 L-1.85,7.1499999999999995 " />
			<path d="M-1.85,7.15 L-0.15000000000000013,7.15 " />
			<path d="M1.85,-0.85 L1.85,0.85 " />
			<path d="M1.85,0.85 L0.15000000000000013,0.85 " />
			<path d="M0.15000000000000002,0.85 L0.15000000000000002,-0.85 " />
			<path d="M0.15000000000000002,-0.85 L1.85,-0.85 " />
			<path d="M1.85,1.15 L1.85,2.8499999999999996 " />
			<path d="M1.85,2.85 L0.15000000000000013,2.85 " />
			<path d="M0.15000000000000002,2.85 L0.15000000000000002,1.1500000000000001 " />
			<path d="M0.15000000000000002,1.15 L1.85,1.15 " />
			<path d="M3.85,-0.85 L3.85,0.85 " />
			<path d="M3.85,0.85 L2.1500000000000004,0.85 " />
			<path d="M2.15,0.85 L2.15,-0.85 " />
			<path d="M2.15,-0.85 L3.8499999999999996,-0.85 " />
			<path d="M5.85,-0.85 L5.85,0.85 " />
			<path d="M5.85,0.85 L4.1499999999999995,0.85 " />
			<path d="M4.15,0.85 L4.15,-0.85 " />
			<path d="M4.15,-0.85 L5.8500000000000005,-0.85 " />
			<path d="M3.85,1.15 L3.85,2.8499999999999996 " />
			<path d="M3.85,2.85 L2.1500000000000004,2.85 " />
			<path d="M2.15,2.85 L2.15,1.1500000000000001 " />
			<path d="M2.15,1.15 L3.8499999999999996,1.15 " />
			<path d="M5.85,1.15 L5.85,2.8499999999999996 " />
			<path d="M5.85,2.85 L4.1499999999999995,2.85 " />
			<path d="M4.15,2.85 L4.15,1.1500000000000001 " />
			<path d="M4.15,1.15 L5.8500000000000005,1.15 " />
			<path d="M1.85,3.15 L1.85,4.85 " />
			<path d="M1.85,4.85 L0.15000000000000013,4.85 " />
			<path d="M0.15000000000000002,4.85 L0.15000000000000002,3.1499999999999995 " />
			<path d="M0.15000000000000002,3.15 L1.85,3.15 " />
			<path d="M3.85,3.15 L3.85,4.85 " />
			<path d="M3.85,4.85 L2.1500000000000004,4.85 " />
			<path d="M2.15,4.85 L2.15,3.1499999999999995 " />
			<path d="M2.15,3.15 L3.8499999999999996,3.15 " />
			<path d="M5.85,3.15 L5.85,4.85 " />
			<path d="M5.85,4.85 L4.1499999999999995,4.85 " />
			<path d="M4.15,4.85 L4.15,3.1499999999999995 " />
			<path d="M4.15,3.15 L5.8500000000000005,3.15 " />
			<path d="M7.85,-0.85 L7.85,0.85 " />
			<path d="M7.85,0.85 L6.1499999999999995,0.85 " />
			<path d="M6.15,0.85 L6.15,-0.85 " />
			<path d="M6.15,-0.85 L7.8500000000000005,-0.85 " />
			<path d="M7.85,1.15 L7.85,2.8499999999999996 " />
			<path d="M7.85,2.85 L6.1499999999999995,2.85 " />
			<path d="M6.15,2.85 L6.15,1.1500000000000001 " />
			<path d="M6.15,1.15 L7.8500000000000005,1.15 " />
			<path d="M9.85,-0.85 L9.85,0.85 " />
			<path d="M9.85,0.85 L8.15,0.85 " />
			<path d="M8.15,0.85 L8.15,-0.85 " />
			<path d="M8.15,-0.85 L9.85,-0.85 " />
			<path d="M11.85,-0.85 L11.85,0.85 " />
			<path d="M11.85,0.85 L10.15,0.85 " />
			<path d="M10.15,0.85 L10.15,-0.85 " />
			<path d="M10.15,-0.85 L11.85,-0.85 " />
			<path d="M9.85,1.15 L9.85,2.8499999999999996 " />
			<path d="M9.85,2.85 L8.15,2.85 " />
			<path d="M8.15,2.85 L8.15,1.1500000000000001 " />
			<path d="M8.15,1.15 L9.85,1.15 " />
			<path d="M11.85,1.15 L11.85,2.8499999999999996 " />
			<path d="M11.85,2.85 L10.15,2.85 " />
			<path d="M10.15,2.85 L10.15,1.1500000000000001 " />
			<path d="M10.15,1.15 L11.85,1.15 " />
			<path d="M7.85,3.15 L7.85,4.85 " />
			<path d="M7.85,4.85 L6.1499999999999995,4.85 " />
			<path d="M6.15,4.85 L6.15,3.1499999999999995 " />
			<path d="M6.15,3.15 L7.8500000000000005,3.15 " />
			<path d="M9.85,3.15 L9.85,4.85 " />
			<path d="M9.85,4.85 L8.15,4.85 " />
			<path d="M8.15,4.85 L8.15,3.1499999999999995 " />
			<path d="M8.15,3.15 L9.85,3.15 " />
			<path d="M11.85,3.15 L11.85,4.85 " />
			<path d="M11.85,4.85 L10.15,4.85 " />
			<path d="M10.15,4.85 L10.15,3.1499999999999995 " />
			<path d="M10.15,3.15 L11.85,3.15 " />
			<path d="M1.85,5.15 L1.85,6.8500000000000005 " />
			<path d="M1.85,6.85 L0.15000000000000013,6.85 " />
			<path d="M0.15000000000000002,6.85 L0.15000000000000002,5.1499999999999995 " />
			<path d="M0.15000000000000002,5.15 L1.85,5.15 " />
			<path d="M3.85,5.15 L3.85,6.8500000000000005 " />
			<path d="M3.85,6.85 L2.1500000000000004,6.85 " />
			<path d="M2.15,6.85 L2.15,5.1499999999999995 " />
			<path d="M2.15,5.15 L3.8499999999999996,5.15 " />
			<path d="M5.85,5.15 L5.85,6.8500000000000005 " />
			<path d="M5.85,6.85 L4.1499999999999995,6.85 " />
			<path d="M4.15,6.85 L4.15,5.1499999999999995 " />
			<path d="M4.15,5.15 L5.8500000000000005,5.15 " />
			<path d="M1.85,7.15 L1.85,8.85 " />
			<path d="M1.85,8.85 L0.15000000000000013,8.85 " />
			<path d="M0.15000000000000002,8.85 L0.15000000000000002,7.1499999999999995 " />
			<path d="M0.15000000000000002,7.15 L1.85,7.15 " />
			<path d="M3.85,7.15 L3.85,8.85 " />
			<path d="M3.85,8.85 L2.1500000000000004,8.85 " />
			<path d="M2.15,8.85 L2.15,7.1499999999999995 " />
			<path d="M2.15,7.15 L3.8499999999999996,7.15 " />
			<path d="M5.85,7.15 L5.85,8.85 " />
			<path d="M5.85,8.85 L4.1499999999999995,8.85 " />
			<path d="M4.15,8.85 L4.15,7.1499999999999995 " />
			<path d="M4.15,7.15 L5.8500000000000005,7.15 " />
			<path d="M7.85,5.15 L7.85,6.8500000000000005 " />
			<path d="M7.85,6.85 L6.1499999999999995,6.85 " />
			<path d="M6.15,6.85 L6.15,5.1499999999999995 " />
			<path d="M6.15,5.15 L7.8500000000000005,5.15 " />
			<path d="M9.85,5.15 L9.85,6.8500000000000005 " />
			<path d="M9.85,6.85 L8.15,6.85 " />
			<path d="M8.15,6.85 L8.15,5.1499999999999995 " />
			<path d="M8.15,5.15 L9.85,5.15 " />
			<path d="M11.85,5.15 L11.85,6.8500000000000005 " />
			<path d="M11.85,6.85 L10.15,6.85 " />
			<path d="M10.15,6.85 L10.15,5.1499999999999995 " />
			<path d="M10.15,5.15 L11.85,5.15 " />
			<path d="M7.85,7.15 L7.85,8.85 " />
			<path d="M7.85,8.85 L6.1499999999999995,8.85 " />
			<path d="M6.15,8.85 L6.15,7.1499999999999995 " />
			<path d="M6.15,7.15 L7.8500000000000005,7.15 " />
			<path d="M9.85,7.15 L9.85,8.85 " />
			<path d="M9.85,8.85 L8.15,8.85 " />
			<path d="M8.15,8.85 L8.15,7.1499999999999995 " />
			<path d="M8.15,7.15 L9.85,7.15 " />
			<path d="M11.85,7.15 L11.85,8.85 " />
			<path d="M11.85,8.85 L10.15,8.85 " />
			<path d="M10.15,8.85 L10.15,7.1499999999999995 " />
			<path d="M10.15,7.15 L11.85,7.15 " />

       </g>

       <!-- solid lines -->
       <g  stroke="rgb(200,200,200)" fill="none">
			<path d="M12.0,-9.9 L12.0,9.9 " />
			<path d="M-12.0,-9.9 L12.0,-9.9 " />
			<path d="M12.0,9.9 L-12.0,9.9 " />
			<path d="M-12.0,9.9 L-12.0,-9.9 " />
			<path d="M-10.15,-8.85 L-10.15,-7.1499999999999995 " />
			<path d="M-10.15,-7.15 L-11.85,-7.15 " />
			<path d="M-11.85,-7.15 L-11.85,-8.85 " />
			<path d="M-11.85,-8.85 L-10.15,-8.85 " />
			<path d="M-8.15,-8.85 L-8.15,-7.1499999999999995 " />
			<path d="M-8.15,-7.15 L-9.85,-7.15 " />
			<path d="M-9.85,-7.15 L-9.85,-8.85 " />
			<path d="M-9.85,-8.85 L-8.15,-8.85 " />
			<path d="M-6.15,-8.85 L-6.15,-7.1499999999999995 " />
			<path d="M-6.15,-7.15 L-7.8500000000000005,-7.15 " />
			<path d="M-7.85,-7.15 L-7.85,-8.85 " />
			<path d="M-7.85,-8.85 L-6.1499999999999995,-8.85 " />
			<path d="M-10.15,-6.85 L-10.15,-5.1499999999999995 " />
			<path d="M-10.15,-5.15 L-11.85,-5.15 " />
			<path d="M-11.85,-5.15 L-11.85,-6.8500000000000005 " />
			<path d="M-11.85,-6.85 L-10.15,-6.85 " />
			<path d="M-8.15,-6.85 L-8.15,-5.1499999999999995 " />
			<path d="M-8.15,-5.15 L-9.85,-5.15 " />
			<path d="M-9.85,-5.15 L-9.85,-6.8500000000000005 " />
			<path d="M-9.85,-6.85 L-8.15,-6.85 " />
			<path d="M-6.15,-6.85 L-6.15,-5.1499999999999995 " />
			<path d="M-6.15,-5.15 L-7.8500000000000005,-5.15 " />
			<path d="M-7.85,-5.15 L-7.85,-6.8500000000000005 " />
			<path d="M-7.85,-6.85 L-6.1499999999999995,-6.85 " />
			<path d="M-4.15,-8.85 L-4.15,-7.1499999999999995 " />
			<path d="M-4.15,-7.15 L-5.8500000000000005,-7.15 " />
			<path d="M-5.85,-7.15 L-5.85,-8.85 " />
			<path d="M-5.85,-8.85 L-4.1499999999999995,-8.85 " />
			<path d="M-2.15,-8.85 L-2.15,-7.1499999999999995 " />
			<path d="M-2.15,-7.15 L-3.8499999999999996,-7.15 " />
			<path d="M-3.85,-7.15 L-3.85,-8.85 " />
			<path d="M-3.85,-8.85 L-2.1500000000000004,-8.85 " />
			<path d="M-0.15000000000000002,-8.85 L-0.15000000000000002,-7.1499999999999995 " />
			<path d="M-0.15000000000000002,-7.15 L-1.85,-7.15 " />
			<path d="M-1.85,-7.15 L-1.85,-8.85 " />
			<path d="M-1.85,-8.85 L-0.15000000000000013,-8.85 " />
			<path d="M-4.15,-6.85 L-4.15,-5.1499999999999995 " />
			<path d="M-4.15,-5.15 L-5.8500000000000005,-5.15 " />
			<path d="M-5.85,-5.15 L-5.85,-6.8500000000000005 " />
			<path d="M-5.85,-6.85 L-4.1499999999999995,-6.85 " />
			<path d="M-2.15,-6.85 L-2.15,-5.1499999999999995 " />
			<path d="M-2.15,-5.15 L-3.8499999999999996,-5.15 " />
			<path d="M-3.85,-5.15 L-3.85,-6.8500000000000005 " />
			<path d="M-3.85,-6.85 L-2.1500000000000004,-6.85 " />
			<path d="M-0.15000000000000002,-6.85 L-0.15000000000000002,-5.1499999999999995 " />
			<path d="M-0.15000000000000002,-5.15 L-1.85,-5.15 " />
			<path d="M-1.85,-5.15 L-1.85,-6.8500000000000005 " />
			<path d="M-1.85,-6.85 L-0.15000000000000013,-6.85 " />
			<path d="M-10.15,-4.85 L-10.15,-3.1499999999999995 " />
			<path d="M-10.15,-3.15 L-11.85,-3.15 " />
			<path d="M-11.85,-3.15 L-11.85,-4.85 " />
			<path d="M-11.85,-4.85 L-10.15,-4.85 " />
			<path d="M-8.15,-4.85 L-8.15,-3.1499999999999995 " />
			<path d="M-8.15,-3.15 L-9.85,-3.15 " />
			<path d="M-9.85,-3.15 L-9.85,-4.85 " />
			<path d="M-9.85,-4.85 L-8.15,-4.85 " />
			<path d="M-6.15,-4.85 L-6.15,-3.1499999999999995 " />
			<path d="M-6.15,-3.15 L-7.8500000000000005,-3.15 " />
			<path d="M-7.85,-3.15 L-7.85,-4.85 " />
			<path d="M-7.85,-4.85 L-6.1499999999999995,-4.85 " />
			<path d="M-10.15,-2.85 L-10.15,-1.1500000000000001 " />
			<path d="M-10.15,-1.15 L-11.85,-1.15 " />
			<path d="M-11.85,-1.15 L-11.85,-2.8499999999999996 " />
			<path d="M-11.85,-2.85 L-10.15,-2.85 " />
			<path d="M-8.15,-2.85 L-8.15,-1.1500000000000001 " />
			<path d="M-8.15,-1.15 L-9.85,-1.15 " />
			<path d="M-9.85,-1.15 L-9.85,-2.8499999999999996 " />
			<path d="M-9.85,-2.85 L-8.15,-2.85 " />
			<path d="M-6.15,-2.85 L-6.15,-1.1500000000000001 " />
			<path d="M-6.15,-1.15 L-7.8500000000000005,-1.15 " />
			<path d="M-7.85,-1.15 L-7.85,-2.8499999999999996 " />
			<path d="M-7.85,-2.85 L-6.1499999999999995,-2.85 " />
			<path d="M-4.15,-4.85 L-4.15,-3.1499999999999995 " />
			<path d="M-4.15,-3.15 L-5.8500000000000005,-3.15 " />
			<path d="M-5.85,-3.15 L-5.85,-4.85 " />
			<path d="M-5.85,-4.85 L-4.1499999999999995,-4.85 " />
			<path d="M-2.15,-4.85 L-2.15,-3.1499999999999995 " />
			<path d="M-2.15,-3.15 L-3.8499999999999996,-3.15 " />
			<path d="M-3.85,-3.15 L-3.85,-4.85 " />
			<path d="M-3.85,-4.85 L-2.1500000000000004,-4.85 " />
			<path d="M-0.15000000000000002,-4.85 L-0.15000000000000002,-3.1499999999999995 " />
			<path d="M-0.15000000000000002,-3.15 L-1.85,-3.15 " />
			<path d="M-1.85,-3.15 L-1.85,-4.85 " />
			<path d="M-1.85,-4.85 L-0.15000000000000013,-4.85 " />
			<path d="M-4.15,-2.85 L-4.15,-1.1500000000000001 " />
			<path d="M-4.15,-1.15 L-5.8500000000000005,-1.15 " />
			<path d="M-5.85,-1.15 L-5.85,-2.8499999999999996 " />
			<path d="M-5.85,-2.85 L-4.1499999999999995,-2.85 " />
			<path d="M-2.15,-2.85 L-2.15,-1.1500000000000001 " />
			<path d="M-2.15,-1.15 L-3.8499999999999996,-1.15 " />
			<path d="M-3.85,-1.15 L-3.85,-2.8499999999999996 " />
			<path d="M-3.85,-2.85 L-2.1500000000000004,-2.85 " />
			<path d="M-0.15000000000000002,-2.85 L-0.15000000000000002,-1.1500000000000001 " />
			<path d="M-0.15000000000000002,-1.15 L-1.85,-1.15 " />
			<path d="M-1.85,-1.15 L-1.85,-2.8499999999999996 " />
			<path d="M-1.85,-2.85 L-0.15000000000000013,-2.85 " />
			<path d="M1.85,-8.85 L1.85,-7.1499999999999995 " />
			<path d="M1.85,-7.15 L0.15000000000000013,-7.15 " />
			<path d="M0.15000000000000002,-7.15 L0.15000000000000002,-8.85 " />
			<path d="M0.15000000000000002,-8.85 L1.85,-8.85 " />
			<path d="M3.85,-8.85 L3.85,-7.1499999999999995 " />
			<path d="M3.85,-7.15 L2.1500000000000004,-7.15 " />
			<path d="M2.15,-7.15 L2.15,-8.85 " />
			<path d="M2.15,-8.85 L3.8499999999999996,-8.85 " />
			<path d="M5.85,-8.85 L5.85,-7.1499999999999995 " />
			<path d="M5.85,-7.15 L4.1499999999999995,-7.15 " />
			<path d="M4.15,-7.15 L4.15,-8.85 " />
			<path d="M4.15,-8.85 L5.8500000000000005,-8.85 " />
			<path d="M1.85,-6.85 L1.85,-5.1499999999999995 " />
			<path d="M1.85,-5.15 L0.15000000000000013,-5.15 " />
			<path d="M0.15000000000000002,-5.15 L0.15000000000000002,-6.8500000000000005 " />
			<path d="M0.15000000000000002,-6.85 L1.85,-6.85 " />
			<path d="M3.85,-6.85 L3.85,-5.1499999999999995 " />
			<path d="M3.85,-5.15 L2.1500000000000004,-5.15 " />
			<path d="M2.15,-5.15 L2.15,-6.8500000000000005 " />
			<path d="M2.15,-6.85 L3.8499999999999996,-6.85 " />
			<path d="M5.85,-6.85 L5.85,-5.1499999999999995 " />
			<path d="M5.85,-5.15 L4.1499999999999995,-5.15 " />
			<path d="M4.15,-5.15 L4.15,-6.8500000000000005 " />
			<path d="M4.15,-6.85 L5.8500000000000005,-6.85 " />
			<path d="M7.85,-8.85 L7.85,-7.1499999999999995 " />
			<path d="M7.85,-7.15 L6.1499999999999995,-7.15 " />
			<path d="M6.15,-7.15 L6.15,-8.85 " />
			<path d="M6.15,-8.85 L7.8500000000000005,-8.85 " />
			<path d="M9.85,-8.85 L9.85,-7.1499999999999995 " />
			<path d="M9.85,-7.15 L8.15,-7.15 " />
			<path d="M8.15,-7.15 L8.15,-8.85 " />
			<path d="M8.15,-8.85 L9.85,-8.85 " />
			<path d="M11.85,-8.85 L11.85,-7.1499999999999995 " />
			<path d="M11.85,-7.15 L10.15,-7.15 " />
			<path d="M10.15,-7.15 L10.15,-8.85 " />
			<path d="M10.15,-8.85 L11.85,-8.85 " />
			<path d="M7.85,-6.85 L7.85,-5.1499999999999995 " />
			<path d="M7.85,-5.15 L6.1499999999999995,-5.15 " />
			<path d="M6.15,-5.15 L6.15,-6.8500000000000005 " />
			<path d="M6.15,-6.85 L7.8500000000000005,-6.85 " />
			<path d="M9.85,-6.85 L9.85,-5.1499999999999995 " />
			<path d="M9.85,-5.15 L8.15,-5.15 " />
			<path d="M8.15,-5.15 L8.15,-6.8500000000000005 " />
			<path d="M8.15,-6.85 L9.85,-6.85 " />
			<path d="M11.85,-6.85 L11.85,-5.1499999999999995 " />
			<path d="M11.85,-5.15 L10.15,-5.15 " />
			<path d="M10.15,-5.15 L10.15,-6.8500000000000005 " />
			<path d="M10.15,-6.85 L11.85,-6.85 " />
			<path d="M1.85,-4.85 L1.85,-3.1499999999999995 " />
			<path d="M1.85,-3.15 L0.15000000000000013,-3.15 " />
			<path d="M0.15000000000000002,-3.15 L0.15000000000000002,-4.85 " />
			<path d="M0.15000000000000002,-4.85 L1.85,-4.85 " />
			<path d="M3.85,-4.85 L3.85,-3.1499999999999995 " />
			<path d="M3.85,-3.15 L2.1500000000000004,-3.15 " />
			<path d="M2.15,-3.15 L2.15,-4.85 " />
			<path d="M2.15,-4.85 L3.8499999999999996,-4.85 " />
			<path d="M5.85,-4.85 L5.85,-3.1499999999999995 " />
			<path d="M5.85,-3.15 L4.1499999999999995,-3.15 " />
			<path d="M4.15,-3.15 L4.15,-4.85 " />
			<path d="M4.15,-4.85 L5.8500000000000005,-4.85 " />
			<path d="M1.85,-2.85 L1.85,-1.1500000000000001 " />
			<path d="M1.85,-1.15 L0.15000000000000013,-1.15 " />
			<path d="M0.15000000000000002,-1.15 L0.15000000000000002,-2.8499999999999996 " />
			<path d="M0.15000000000000002,-2.85 L1.85,-2.85 " />
			<path d="M3.85,-2.85 L3.85,-1.1500000000000001 " />
			<path d="M3.85,-1.15 L2.1500000000000004,-1.15 " />
			<path d="M2.15,-1.15 L2.15,-2.8499999999999996 " />
			<path d="M2.15,-2.85 L3.8499999999999996,-2.85 " />
			<path d="M5.85,-2.85 L5.85,-1.1500000000000001 " />
			<path d="M5.85,-1.15 L4.1499999999999995,-1.15 " />
			<path d="M4.15,-1.15 L4.15,-2.8499999999999996 " />
			<path d="M4.15,-2.85 L5.8500000000000005,-2.85 " />
			<path d="M7.85,-4.85 L7.85,-3.1499999999999995 " />
			<path d="M7.85,-3.15 L6.1499999999999995,-3.15 " />
			<path d="M6.15,-3.15 L6.15,-4.85 " />
			<path d="M6.15,-4.85 L7.8500000000000005,-4.85 " />
			<path d="M9.85,-4.85 L9.85,-3.1499999999999995 " />
			<path d="M9.85,-3.15 L8.15,-3.15 " />
			<path d="M8.15,-3.15 L8.15,-4.85 " />
			<path d="M8.15,-4.85 L9.85,-4.85 " />
			<path d="M11.85,-4.85 L11.85,-3.1499999999999995 " />
			<path d="M11.85,-3.15 L10.15,-3.15 " />
			<path d="M10.15,-3.15 L10.15,-4.85 " />
			<path d="M10.15,-4.85 L11.85,-4.85 " />
			<path d="M7.85,-2.85 L7.85,-1.1500000000000001 " />
			<path d="M7.85,-1.15 L6.1499999999999995,-1.15 " />
			<path d="M6.15,-1.15 L6.15,-2.8499999999999996 " />
			<path d="M6.15,-2.85 L7.8500000000000005,-2.85 " />
			<path d="M9.85,-2.85 L9.85,-1.1500000000000001 " />
			<path d="M9.85,-1.15 L8.15,-1.15 " />
			<path d="M8.15,-1.15 L8.15,-2.8499999999999996 " />
			<path d="M8.15,-2.85 L9.85,-2.85 " />
			<path d="M11.85,-2.85 L11.85,-1.1500000000000001 " />
			<path d="M11.85,-1.15 L10.15,-1.15 " />
			<path d="M10.15,-1.15 L10.15,-2.8499999999999996 " />
			<path d="M10.15,-2.85 L11.85,-2.85 " />
			<path d="M-10.15,-0.85 L-10.15,0.85 " />
			<path d="M-10.15,0.85 L-11.85,0.85 " />
			<path d="M-11.85,0.85 L-11.85,-0.85 " />
			<path d="M-11.85,-0.85 L-10.15,-0.85 " />
			<path d="M-8.15,-0.85 L-8.15,0.85 " />
			<path d="M-8.15,0.85 L-9.85,0.85 " />
			<path d="M-9.85,0.85 L-9.85,-0.85 " />
			<path d="M-9.85,-0.85 L-8.15,-0.85 " />
			<path d="M-10.15,1.15 L-10.15,2.8499999999999996 " />
			<path d="M-10.15,2.85 L-11.85,2.85 " />
			<path d="M-11.85,2.85 L-11.85,1.1500000000000001 " />
			<path d="M-11.85,1.15 L-10.15,1.15 " />
			<path d="M-8.15,1.15 L-8.15,2.8499999999999996 " />
			<path d="M-8.15,2.85 L-9.85,2.85 " />
			<path d="M-9.85,2.85 L-9.85,1.1500000000000001 " />
			<path d="M-9.85,1.15 L-8.15,1.15 " />
			<path d="M-6.15,-0.85 L-6.15,0.85 " />
			<path d="M-6.15,0.85 L-7.8500000000000005,0.85 " />
			<path d="M-7.85,0.85 L-7.85,-0.85 " />
			<path d="M-7.85,-0.85 L-6.1499999999999995,-0.85 " />
			<path d="M-6.15,1.15 L-6.15,2.8499999999999996 " />
			<path d="M-6.15,2.85 L-7.8500000000000005,2.85 " />
			<path d="M-7.85,2.85 L-7.85,1.1500000000000001 " />
			<path d="M-7.85,1.15 L-6.1499999999999995,1.15 " />
			<path d="M-10.15,3.15 L-10.15,4.85 " />
			<path d="M-10.15,4.85 L-11.85,4.85 " />
			<path d="M-11.85,4.85 L-11.85,3.1499999999999995 " />
			<path d="M-11.85,3.15 L-10.15,3.15 " />
			<path d="M-8.15,3.15 L-8.15,4.85 " />
			<path d="M-8.15,4.85 L-9.85,4.85 " />
			<path d="M-9.85,4.85 L-9.85,3.1499999999999995 " />
			<path d="M-9.85,3.15 L-8.15,3.15 " />
			<path d="M-6.15,3.15 L-6.15,4.85 " />
			<path d="M-6.15,4.85 L-7.8500000000000005,4.85 " />
			<path d="M-7.85,4.85 L-7.85,3.1499999999999995 " />
			<path d="M-7.85,3.15 L-6.1499999999999995,3.15 " />
			<path d="M-4.15,-0.85 L-4.15,0.85 " />
			<path d="M-4.15,0.85 L-5.8500000000000005,0.85 " />
			<path d="M-5.85,0.85 L-5.85,-0.85 " />
			<path d="M-5.85,-0.85 L-4.1499999999999995,-0.85 " />
			<path d="M-2.15,-0.85 L-2.15,0.85 " />
			<path d="M-2.15,0.85 L-3.8499999999999996,0.85 " />
			<path d="M-3.85,0.85 L-3.85,-0.85 " />
			<path d="M-3.85,-0.85 L-2.1500000000000004,-0.85 " />
			<path d="M-4.15,1.15 L-4.15,2.8499999999999996 " />
			<path d="M-4.15,2.85 L-5.8500000000000005,2.85 " />
			<path d="M-5.85,2.85 L-5.85,1.1500000000000001 " />
			<path d="M-5.85,1.15 L-4.1499999999999995,1.15 " />
			<path d="M-2.15,1.15 L-2.15,2.8499999999999996 " />
			<path d="M-2.15,2.85 L-3.8499999999999996,2.85 " />
			<path d="M-3.85,2.85 L-3.85,1.1500000000000001 " />
			<path d="M-3.85,1.15 L-2.1500000000000004,1.15 " />
			<path d="M-0.15000000000000002,-0.85 L-0.15000000000000002,0.85 " />
			<path d="M-0.15000000000000002,0.85 L-1.85,0.85 " />
			<path d="M-1.85,0.85 L-1.85,-0.85 " />
			<path d="M-1.85,-0.85 L-0.15000000000000013,-0.85 " />
			<path d="M-0.15000000000000002,1.15 L-0.15000000000000002,2.8499999999999996 " />
			<path d="M-0.15000000000000002,2.85 L-1.85,2.85 " />
			<path d="M-1.85,2.85 L-1.85,1.1500000000000001 " />
			<path d="M-1.85,1.15 L-0.15000000000000013,1.15 " />
			<path d="M-4.15,3.15 L-4.15,4.85 " />
			<path d="M-4.15,4.85 L-5.8500000000000005,4.85 " />
			<path d="M-5.85,4.85 L-5.85,3.1499999999999995 " />
			<path d="M-5.85,3.15 L-4.1499999999999995,3.15 " />
			<path d="M-2.15,3.15 L-2.15,4.85 " />
			<path d="M-2.15,4.85 L-3.8499999999999996,4.85 " />
			<path d="M-3.85,4.85 L-3.85,3.1499999999999995 " />
			<path d="M-3.85,3.15 L-2.1500000000000004,3.15 " />
			<path d="M-0.15000000000000002,3.15 L-0.15000000000000002,4.85 " />
			<path d="M-0.15000000000000002,4.85 L-1.85,4.85 " />
			<path d="M-1.85,4.85 L-1.85,3.1499999999999995 " />
			<path d="M-1.85,3.15 L-0.15000000000000013,3.15 " />
			<path d="M-10.15,5.15 L-10.15,6.8500000000000005 " />
			<path d="M-10.15,6.85 L-11.85,6.85 " />
			<path d="M-11.85,6.85 L-11.85,5.1499999999999995 " />
			<path d="M-11.85,5.15 L-10.15,5.15 " />
			<path d="M-8.15,5.15 L-8.15,6.8500000000000005 " />
			<path d="M-8.15,6.85 L-9.85,6.85 " />
			<path d="M-9.85,6.85 L-9.85,5.1499999999999995 " />
			<path d="M-9.85,5.15 L-8.15,5.15 " />
			<path d="M-6.15,5.15 L-6.15,6.8500000000000005 " />
			<path d="M-6.15,6.85 L-7.8500000000000005,6.85 " />
			<path d="M-7.85,6.85 L-7.85,5.1499999999999995 " />
			<path d="M-7.85,5.15 L-6.1499999999999995,5.15 " />
			<path d="M-10.15,7.15 L-10.15,8.85 " />
			<path d="M-10.15,8.85 L-11.85,8.85 " />
			<path d="M-11.85,8.85 L-11.85,7.1499999999999995 " />
			<path d="M-11.85,7.15 L-10.15,7.15 " />
			<path d="M-8.15,7.15 L-8.15,8.85 " />
			<path d="M-8.15,8.85 L-9.85,8.85 " />
			<path d="M-9.85,8.85 L-9.85,7.1499999999999995 " />
			<path d="M-9.85,7.15 L-8.15,7.15 " />
			<path d="M-6.15,7.15 L-6.15,8.85 " />
			<path d="M-6.15,8.85 L-7.8500000000000005,8.85 " />
			<path d="M-7.85,8.85 L-7.85,7.1499999999999995 " />
			<path d="M-7.85,7.15 L-6.1499999999999995,7.15 " />
			<path d="M-4.15,5.15 L-4.15,6.8500000000000005 " />
			<path d="M-4.15,6.85 L-5.8500000000000005,6.85 " />
			<path d="M-5.85,6.85 L-5.85,5.1499999999999995 " />
			<path d="M-5.85,5.15 L-4.1499999999999995,5.15 " />
			<path d="M-2.15,5.15 L-2.15,6.8500000000000005 " />
			<path d="M-2.15,6.85 L-3.8499999999999996,6.85 " />
			<path d="M-3.85,6.85 L-3.85,5.1499999999999995 " />
			<path d="M-3.85,5.15 L-2.1500000000000004,5.15 " />
			<path d="M-0.15000000000000002,5.15 L-0.15000000000000002,6.8500000000000005 " />
			<path d="M-0.15000000000000002,6.85 L-1.85,6.85 " />
			<path d="M-1.85,6.85 L-1.85,5.1499999999999995 " />
			<path d="M-1.85,5.15 L-0.15000000000000013,5.15 " />
			<path d="M-4.15,7.15 L-4.15,8.85 " />
			<path d="M-4.15,8.85 L-5.8500000000000005,8.85 " />
			<path d="M-5.85,8.85 L-5.85,7.1499999999999995 " />
			<path d="M-5.85,7.15 L-4.1499999999999995,7.15 " />
			<path d="M-2.15,7.15 L-2.15,8.85 " />
			<path d="M-2.15,8.85 L-3.8499999999999996,8.85 " />
			<path d="M-3.85,8.85 L-3.85,7.1499999999999995 " />
			<path d="M-3.85,7.15 L-2.1500000000000004,7.15 " />
			<path d="M-0.15000000000000002,7.15 L-0.15000000000000002,8.85 " />
			<path d="M-0.15000000000000002,8.85 L-1.85,8.85 " />
			<path d="M-1.85,8.85 L-1.85,7.1499999999999995 " />
			<path d="M-1.85,7.15 L-0.15000000000000013,7.15 " />
			<path d="M1.85,-0.85 L1.85,0.85 " />
			<path d="M1.85,0.85 L0.15000000000000013,0.85 " />
			<path d="M0.15000000000000002,0.85 L0.15000000000000002,-0.85 " />
			<path d="M0.15000000000000002,-0.85 L1.85,-0.85 " />
			<path d="M1.85,1.15 L1.85,2.8499999999999996 " />
			<path d="M1.85,2.85 L0.15000000000000013,2.85 " />
			<path d="M0.15000000000000002,2.85 L0.15000000000000002,1.1500000000000001 " />
			<path d="M0.15000000000000002,1.15 L1.85,1.15 " />
			<path d="M3.85,-0.85 L3.85,0.85 " />
			<path d="M3.85,0.85 L2.1500000000000004,0.85 " />
			<path d="M2.15,0.85 L2.15,-0.85 " />
			<path d="M2.15,-0.85 L3.8499999999999996,-0.85 " />
			<path d="M5.85,-0.85 L5.85,0.85 " />
			<path d="M5.85,0.85 L4.1499999999999995,0.85 " />
			<path d="M4.15,0.85 L4.15,-0.85 " />
			<path d="M4.15,-0.85 L5.8500000000000005,-0.85 " />
			<path d="M3.85,1.15 L3.85,2.8499999999999996 " />
			<path d="M3.85,2.85 L2.1500000000000004,2.85 " />
			<path d="M2.15,2.85 L2.15,1.1500000000000001 " />
			<path d="M2.15,1.15 L3.8499999999999996,1.15 " />
			<path d="M5.85,1.15 L5.85,2.8499999999999996 " />
			<path d="M5.85,2.85 L4.1499999999999995,2.85 " />
			<path d="M4.15,2.85 L4.15,1.1500000000000001 " />
			<path d="M4.15,1.15 L5.8500000000000005,1.15 " />
			<path d="M1.85,3.15 L1.85,4.85 " />
			<path d="M1.85,4.85 L0.15000000000000013,4.85 " />
			<path d="M0.15000000000000002,4.85 L0.15000000000000002,3.1499999999999995 " />
			<path d="M0.15000000000000002,3.15 L1.85,3.15 " />
			<path d="M3.85,3.15 L3.85,4.85 " />
			<path d="M3.85,4.85 L2.1500000000000004,4.85 " />
			<path d="M2.15,4.85 L2.15,3.1499999999999995 " />
			<path d="M2.15,3.15 L3.8499999999999996,3.15 " />
			<path d="M5.85,3.15 L5.85,4.85 " />
			<path d="M5.85,4.85 L4.1499999999999995,4.85 " />
			<path d="M4.15,4.85 L4.15,3.1499999999999995 " />
			<path d="M4.15,3.15 L5.8500000000000005,3.15 " />
			<path d="M7.85,-0.85 L7.85,0.85 " />
			<path d="M7.85,0.85 L6.1499999999999995,0.85 " />
			<path d="M6.15,0.85 L6.15,-0.85 " />
			<path d="M6.15,-0.85 L7.8500000000000005,-0.85 " />
			<path d="M7.85,1.15 L7.85,2.8499999999999996 " />
			<path d="M7.85,2.85 L6.1499999999999995,2.85 " />
			<path d="M6.15,2.85 L6.15,1.1500000000000001 " />
			<path d="M6.15,1.15 L7.8500000000000005,1.15 " />
			<path d="M9.85,-0.85 L9.85,0.85 " />
			<path d="M9.85,0.85 L8.15,0.85 " />
			<path d="M8.15,0.85 L8.15,-0.85 " />
			<path d="M8.15,-0.85 L9.85,-0.85 " />
			<path d="M11.85,-0.85 L11.85,0.85 " />
			<path d="M11.85,0.85 L10.15,0.85 " />
			<path d="M10.15,0.85 L10.15,-0.85 " />
			<path d="M10.15,-0.85 L11.85,-0.85 " />
			<path d="M9.85,1.15 L9.85,2.8499999999999996 " />
			<path d="M9.85,2.85 L8.15,2.85 " />
			<path d="M8.15,2.85 L8.15,1.1500000000000001 " />
			<path d="M8.15,1.15 L9.85,1.15 " />
			<path d="M11.85,1.15 L11.85,2.8499999999999996 " />
			<path d="M11.85,2.85 L10.15,2.85 " />
			<path d="M10.15,2.85 L10.15,1.1500000000000001 " />
			<path d="M10.15,1.15 L11.85,1.15 " />
			<path d="M7.85,3.15 L7.85,4.85 " />
			<path d="M7.85,4.85 L6.1499999999999995,4.85 " />
			<path d="M6.15,4.85 L6.15,3.1499999999999995 " />
			<path d="M6.15,3.15 L7.8500000000000005,3.15 " />
			<path d="M9.85,3.15 L9.85,4.85 " />
			<path d="M9.85,4.85 L8.15,4.85 " />
			<path d="M8.15,4.85 L8.15,3.1499999999999995 " />
			<path d="M8.15,3.15 L9.85,3.15 " />
			<path d="M11.85,3.15 L11.85,4.85 " />
			<path d="M11.85,4.85 L10.15,4.85 " />
			<path d="M10.15,4.85 L10.15,3.1499999999999995 " />
			<path d="M10.15,3.15 L11.85,3.15 " />
			<path d="M1.85,5.15 L1.85,6.8500000000000005 " />
			<path d="M1.85,6.85 L0.15000000000000013,6.85 " />
			<path d="M0.15000000000000002,6.85 L0.15000000000000002,5.1499999999999995 " />
			<path d="M0.15000000000000002,5.15 L1.85,5.15 " />
			<path d="M3.85,5.15 L3.85,6.8500000000000005 " />
			<path d="M3.85,6.85 L2.1500000000000004,6.85 " />
			<path d="M2.15,6.85 L2.15,5.1499999999999995 " />
			<path d="M2.15,5.15 L3.8499999999999996,5.15 " />
			<path d="M5.85,5.15 L5.85,6.8500000000000005 " />
			<path d="M5.85,6.85 L4.1499999999999995,6.85 " />
			<path d="M4.15,6.85 L4.15,5.1499999999999995 " />
			<path d="M4.15,5.15 L5.8500000000000005,5.15 " />
			<path d="M1.85,7.15 L1.85,8.85 " />
			<path d="M1.85,8.85 L0.15000000000000013,8.85 " />
			<path d="M0.15000000000000002,8.85 L0.15000000000000002,7.1499999999999995 " />
			<path d="M0.15000000000000002,7.15 L1.85,7.15 " />
			<path d="M3.85,7.15 L3.85,8.85 " />
			<path d="M3.85,8.85 L2.1500000000000004,8.85 " />
			<path d="M2.15,8.85 L2.15,7.1499999999999995 " />
			<path d="M2.15,7.15 L3.8499999999999996,7.15 " />
			<path d="M5.85,7.15 L5.85,8.85 " />
			<path d="M5.85,8.85 L4.1499999999999995,8.85 " />
			<path d="M4.15,8.85 L4.15,7.1499999999999995 " />
			<path d="M4.15,7.15 L5.8500000000000005,7.15 " />
			<path d="M7.85,5.15 L7.85,6.8500000000000005 " />
			<path d="M7.85,6.85 L6.1499999999999995,6.85 " />
			<path d="M6.15,6.85 L6.15,5.1499999999999995 " />
			<path d="M6.15,5.15 L7.8500000000000005,5.15 " />
			<path d="M9.85,5.15 L9.85,6.8500000000000005 " />
			<path d="M9.85,6.85 L8.15,6.85 " />
			<path d="M8.15,6.85 L8.15,5.1499999999999995 " />
			<path d="M8.15,5.15 L9.85,5.15 " />
			<path d="M11.85,5.15 L11.85,6.8500000000000005 " />
			<path d="M11.85,6.85 L10.15,6.85 " />
			<path d="M10.15,6.85 L10.15,5.1499999999999995 " />
			<path d="M10.15,5.15 L11.85,5.15 " />
			<path d="M7.85,7.15 L7.85,8.85 " />
			<path d="M7.85,8.85 L6.1499999999999995,8.85 " />
			<path d="M6.15,8.85 L6.15,7.1499999999999995 " />
			<path d="M6.15,7.15 L7.8500000000000005,7.15 " />
			<path d="M9.85,7.15 L9.85,8.85 " />
			<path d="M9.85,8.85 L8.15,8.85 " />
			<path d="M8.15,8.85 L8.15,7.1499999999999995 " />
			<path d="M8.15,7.15 L9.85,7.15 " />
			<path d="M11.85,7.15 L11.85,8.85 " />
			<path d="M11.85,8.85 L10.15,8.85 " />
			<path d="M10.15,8.85 L10.15,7.1499999999999995 " />
			<path d="M10.15,7.15 L11.85,7.15 " />

       </g>
    </g>
    
</svg>
