<?xml version="1.0" encoding="UTF-8" standalone="no"?>
<svg
   xmlns:svg="http://www.w3.org/2000/svg"
   xmlns="http://www.w3.org/2000/svg"
   viewBox="195.95 8.75 89.10 247.50"

>
    <g transform="scale(8.999999927999996, -8.999999927999996)   translate(31.222222500000008,-14.722222340000014)" stroke-width="0.5"  fill="none">
       <!-- hidden lines -->
       <g  stroke="rgb(80,80,80)" fill="none" stroke-dasharray="0.5,0.5" >
			<path d="M0.0,12.5 L0.0,12.186598902272795 L0.0,11.262110848780239 L0.0,9.772893530850373 L0.0,7.79362252323417 L0.0,5.423546738969478 L0.0,2.7815116744539305 L0.0,7.654042494670958e-16 L0.0,-2.781511674453929 L0.0,-5.423546738969476 L0.0,-7.793622523234169 L0.0,-9.772893530850371 L0.0,-11.262110848780239 L0.0,-12.186598902272795 L0.0,-12.499999999999995 " />
			<path d="M-5.0,12.5 L-5.0,12.186598902272795 L-5.0,11.262110848780239 L-5.0,9.772893530850373 L-5.0,7.79362252323417 L-5.0,5.423546738969478 L-5.0,2.7815116744539305 L-5.0,7.654042494670958e-16 L-5.0,-2.781511674453929 L-5.0,-5.423546738969476 L-5.0,-7.793622523234169 L-5.0,-9.772893530850371 L-5.0,-11.262110848780239 L-5.0,-12.186598902272795 L-5.0,-12.499999999999995 " />
			<path d="M0.0,6.449999999999999 L0.0,6.288285033572762 L0.0,5.811249197970603 L0.0,5.042813061918792 L0.0,4.021509221988831 L0.0,2.79855011730825 L0.0,1.435260024018228 L0.0,3.949485927250214e-16 L0.0,-1.4352600240182274 L0.0,-2.7985501173082494 L0.0,-4.021509221988831 L0.0,-5.042813061918791 L0.0,-5.811249197970602 L0.0,-6.288285033572762 L0.0,-6.449999999999996 " />
			<path d="M0.0,-6.449999999999999 L0.0,-6.288285033572762 L0.0,-5.811249197970603 L0.0,-5.0428130619187925 L0.0,-4.021509221988831 L0.0,-2.7985501173082508 L0.0,-1.435260024018229 L0.0,-1.184845778175064e-15 L0.0,1.4352600240182265 L0.0,2.7985501173082485 L0.0,4.02150922198883 L0.0,5.042813061918791 L0.0,5.811249197970602 L0.0,6.288285033572761 L0.0,6.449999999999993 " />
			<path d="M0.0,9.043750000000001 L0.0,9.021341821512506 L0.0,8.955240925687788 L0.0,8.848761887455803 L0.0,8.707244010411243 L0.0,8.537783591836318 L0.0,8.348878084723456 L0.0,8.15 L0.0,7.951121915276545 L0.0,7.762216408163683 L0.0,7.592755989588757 L0.0,7.451238112544199 L0.0,7.344759074312213 L0.0,7.278658178487495 L0.0,7.2562500000000005 " />
			<path d="M0.0,7.2562500000000005 L0.0,7.278658178487495 L0.0,7.344759074312213 L0.0,7.451238112544199 L0.0,7.592755989588757 L0.0,7.762216408163683 L0.0,7.951121915276544 L0.0,8.15 L0.0,8.348878084723456 L0.0,8.537783591836318 L0.0,8.707244010411243 L0.0,8.848761887455801 L0.0,8.955240925687788 L0.0,9.021341821512506 L0.0,9.043750000000001 " />
			<path d="M-5.000000000000001,10.7 L-5.000000000000001,10.431728660345511 L-5.000000000000001,9.640366886555885 L-5.000000000000001,8.365596862407918 L-5.000000000000001,6.671340879888449 L-5.000000000000001,4.6425560085578725 L-5.000000000000001,2.3809739933325647 L-5.000000000000001,6.55186037543834e-16 L-5.000000000000001,-2.3809739933325633 L-5.000000000000001,-4.642556008557871 L-5.000000000000001,-6.671340879888448 L-5.000000000000001,-8.365596862407918 L-5.000000000000001,-9.640366886555883 L-5.000000000000001,-10.431728660345511 L-5.000000000000001,-10.699999999999994 " />
			<path d="M-5.000000000000001,-10.7 L-5.000000000000001,-10.431728660345511 L-5.000000000000001,-9.640366886555885 L-5.000000000000001,-8.36559686240792 L-5.000000000000001,-6.671340879888449 L-5.000000000000001,-4.642556008557873 L-5.000000000000001,-2.380973993332566 L-5.000000000000001,-1.965558112631502e-15 L-5.000000000000001,2.380973993332562 L-5.000000000000001,4.64255600855787 L-5.000000000000001,6.671340879888446 L-5.000000000000001,8.365596862407918 L-5.000000000000001,9.640366886555883 L-5.000000000000001,10.431728660345511 L-5.000000000000001,10.699999999999989 " />
			<path d="M0.0,6.449999999999999 L-4.5,6.449999999999999 " />
			<path d="M-4.5,6.449999999999999 L-4.5,6.288285033572762 L-4.5,5.811249197970603 L-4.5,5.042813061918792 L-4.5,4.021509221988831 L-4.5,2.79855011730825 L-4.5,1.435260024018228 L-4.5,3.949485927250214e-16 L-4.5,-1.4352600240182274 L-4.5,-2.7985501173082494 L-4.5,-4.021509221988831 L-4.5,-5.042813061918791 L-4.5,-5.811249197970602 L-4.5,-6.288285033572762 L-4.5,-6.449999999999996 " />
			<path d="M-4.5,-6.449999999999999 L-4.5,-6.288285033572762 L-4.5,-5.811249197970603 L-4.5,-5.0428130619187925 L-4.5,-4.021509221988831 L-4.5,-2.7985501173082508 L-4.5,-1.435260024018229 L-4.5,-1.184845778175064e-15 L-4.5,1.4352600240182265 L-4.5,2.7985501173082485 L-4.5,4.02150922198883 L-4.5,5.042813061918791 L-4.5,5.811249197970602 L-4.5,6.288285033572761 L-4.5,6.449999999999993 " />
			<path d="M0.0,9.043750000000001 L-9.0,9.043750000000001 " />
			<path d="M-9.0,9.043750000000001 L-9.0,9.021341821512506 L-9.0,8.955240925687788 L-9.0,8.848761887455803 L-9.0,8.707244010411243 L-9.0,8.537783591836318 L-9.0,8.348878084723456 L-9.0,8.15 L-9.0,7.951121915276545 L-9.0,7.762216408163683 L-9.0,7.592755989588757 L-9.0,7.451238112544199 L-9.0,7.344759074312213 L-9.0,7.278658178487495 L-9.0,7.2562500000000005 " />
			<path d="M-9.0,7.2562500000000005 L-9.0,7.278658178487495 L-9.0,7.344759074312213 L-9.0,7.451238112544199 L-9.0,7.592755989588757 L-9.0,7.762216408163683 L-9.0,7.951121915276544 L-9.0,8.15 L-9.0,8.348878084723456 L-9.0,8.537783591836318 L-9.0,8.707244010411243 L-9.0,8.848761887455801 L-9.0,8.955240925687788 L-9.0,9.021341821512506 L-9.0,9.043750000000001 " />
			<path d="M-6.4,-10.7 L-6.4,-10.431728660345511 L-6.4,-9.640366886555885 L-6.4,-8.36559686240792 L-6.4,-6.671340879888449 L-6.4,-4.642556008557873 L-6.4,-2.380973993332566 L-6.4,-1.965558112631502e-15 L-6.4,2.380973993332562 L-6.4,4.64255600855787 L-6.4,6.671340879888446 L-6.4,8.365596862407918 L-6.4,9.640366886555883 L-6.4,10.431728660345511 L-6.4,10.699999999999989 " />
			<path d="M-4.5,-1.5450000000000017 L-4.5,-1.55327378898 L-4.5,-1.5776802735922035 L-4.5,-1.6169956107855519 L-4.5,-1.6692483653866197 L-4.5,-1.7318183660912077 L-4.5,-1.801568091794418 L-4.5,-1.8750000000000018 L-4.5,-1.9484319082055854 L-4.5,-2.018181633908796 L-4.5,-2.080751634613384 L-4.5,-2.1330043892144515 L-4.5,-2.1723197264078 L-4.5,-2.1967262110200036 L-4.5,-2.205000000000002 " />
			<path d="M-4.5,-2.205000000000002 L-4.5,-2.1967262110200036 L-4.5,-2.1723197264078 L-4.5,-2.1330043892144515 L-4.5,-2.080751634613384 L-4.5,-2.018181633908796 L-4.5,-1.9484319082055856 L-4.5,-1.8750000000000018 L-4.5,-1.8015680917944181 L-4.5,-1.7318183660912077 L-4.5,-1.6692483653866197 L-4.5,-1.616995610785552 L-4.5,-1.5776802735922035 L-4.5,-1.55327378898 L-4.5,-1.545000000000002 " />
			<path d="M-4.5,0.32999999999999935 L-4.5,0.32172621102000115 L-4.5,0.2973197264077977 L-4.5,0.2580043892144492 L-4.5,0.2057516346133814 L-4.5,0.14318163390879352 L-4.5,0.07343190820558308 L-4.5,-6.686571523344548e-16 L-4.5,-0.07343190820558443 L-4.5,-0.14318163390879488 L-4.5,-0.20575163461338275 L-4.5,-0.25800438921445046 L-4.5,-0.29731972640779897 L-4.5,-0.3217262110200025 L-4.5,-0.3300000000000005 " />
			<path d="M-4.5,-0.3300000000000007 L-4.5,-0.3217262110200025 L-4.5,-0.297319726407799 L-4.5,-0.25800438921445057 L-4.5,-0.20575163461338278 L-4.5,-0.14318163390879493 L-4.5,-0.07343190820558451 L-4.5,-7.494838410781801e-16 L-4.5,0.073431908205583 L-4.5,0.14318163390879343 L-4.5,0.20575163461338133 L-4.5,0.2580043892144491 L-4.5,0.29731972640779764 L-4.5,0.3217262110200011 L-4.5,0.329999999999999 " />
			<path d="M-4.5,-2.9175952641916454 L-4.5,-2.9258690531716436 L-4.5,-2.950275537783847 L-4.5,-2.989590874977196 L-4.5,-3.0418436295782634 L-4.5,-3.1044136302828513 L-4.5,-3.1741633559860616 L-4.5,-3.2475952641916455 L-4.5,-3.3210271723972293 L-4.5,-3.3907768981004396 L-4.5,-3.4533468988050275 L-4.5,-3.505599653406095 L-4.5,-3.5449149905994437 L-4.5,-3.5693214752116473 L-4.5,-3.5775952641916455 " />
			<path d="M-4.5,-3.5775952641916455 L-4.5,-3.5693214752116473 L-4.5,-3.5449149905994437 L-4.5,-3.5055996534060956 L-4.5,-3.4533468988050275 L-4.5,-3.3907768981004396 L-4.5,-3.3210271723972293 L-4.5,-3.2475952641916455 L-4.5,-3.1741633559860616 L-4.5,-3.1044136302828513 L-4.5,-3.0418436295782634 L-4.5,-2.989590874977196 L-4.5,-2.950275537783847 L-4.5,-2.9258690531716436 L-4.5,-2.917595264191646 " />
			<path d="M-4.5,2.2050000000000005 L-4.5,2.1967262110200023 L-4.5,2.1723197264077987 L-4.5,2.13300438921445 L-4.5,2.0807516346133825 L-4.5,2.0181816339087946 L-4.5,1.9484319082055843 L-4.5,1.8750000000000004 L-4.5,1.8015680917944168 L-4.5,1.7318183660912063 L-4.5,1.6692483653866184 L-4.5,1.6169956107855508 L-4.5,1.5776802735922022 L-4.5,1.5532737889799986 L-4.5,1.5450000000000006 " />
			<path d="M-4.5,1.5450000000000004 L-4.5,1.5532737889799986 L-4.5,1.5776802735922022 L-4.5,1.6169956107855505 L-4.5,1.6692483653866184 L-4.5,1.7318183660912063 L-4.5,1.8015680917944166 L-4.5,1.8750000000000004 L-4.5,1.948431908205584 L-4.5,2.0181816339087946 L-4.5,2.0807516346133825 L-4.5,2.13300438921445 L-4.5,2.1723197264077987 L-4.5,2.1967262110200023 L-4.5,2.205 " />
			<path d="M-4.5,3.577595264191644 L-4.5,3.569321475211646 L-4.5,3.5449149905994424 L-4.5,3.505599653406094 L-4.5,3.453346898805026 L-4.5,3.3907768981004383 L-4.5,3.321027172397228 L-4.5,3.247595264191644 L-4.5,3.1741633559860603 L-4.5,3.10441363028285 L-4.5,3.041843629578262 L-4.5,2.9895908749771944 L-4.5,2.950275537783846 L-4.5,2.9258690531716423 L-4.5,2.917595264191644 " />
			<path d="M-4.5,2.917595264191644 L-4.5,2.9258690531716423 L-4.5,2.950275537783846 L-4.5,2.9895908749771944 L-4.5,3.041843629578262 L-4.5,3.10441363028285 L-4.5,3.1741633559860603 L-4.5,3.247595264191644 L-4.5,3.321027172397228 L-4.5,3.3907768981004383 L-4.5,3.453346898805026 L-4.5,3.505599653406094 L-4.5,3.5449149905994424 L-4.5,3.569321475211646 L-4.5,3.5775952641916438 " />
			<path d="M-4.5,-3.42 L-4.5,-3.428273788979998 L-4.5,-3.4526802735922018 L-4.5,-3.4919956107855503 L-4.5,-3.544248365386618 L-4.5,-3.606818366091206 L-4.5,-3.676568091794416 L-4.5,-3.75 L-4.5,-3.823431908205584 L-4.5,-3.893181633908794 L-4.5,-3.955751634613382 L-4.5,-4.00800438921445 L-4.5,-4.047319726407799 L-4.5,-4.071726211020001 L-4.5,-4.08 " />
			<path d="M-4.5,-4.08 L-4.5,-4.071726211020001 L-4.5,-4.047319726407799 L-4.5,-4.00800438921445 L-4.5,-3.955751634613382 L-4.5,-3.893181633908794 L-4.5,-3.823431908205584 L-4.5,-3.75 L-4.5,-3.676568091794416 L-4.5,-3.606818366091206 L-4.5,-3.544248365386618 L-4.5,-3.4919956107855503 L-4.5,-3.4526802735922018 L-4.5,-3.428273788979998 L-4.5,-3.4200000000000004 " />
			<path d="M-4.5,-2.917595264191645 L-4.5,-2.925869053171643 L-4.5,-2.9502755377838468 L-4.5,-2.9895908749771953 L-4.5,-3.041843629578263 L-4.5,-3.104413630282851 L-4.5,-3.174163355986061 L-4.5,-3.247595264191645 L-4.5,-3.321027172397229 L-4.5,-3.390776898100439 L-4.5,-3.453346898805027 L-4.5,-3.5055996534060947 L-4.5,-3.5449149905994433 L-4.5,-3.569321475211647 L-4.5,-3.577595264191645 " />
			<path d="M-4.5,-3.577595264191645 L-4.5,-3.569321475211647 L-4.5,-3.5449149905994433 L-4.5,-3.5055996534060947 L-4.5,-3.453346898805027 L-4.5,-3.390776898100439 L-4.5,-3.321027172397229 L-4.5,-3.247595264191645 L-4.5,-3.174163355986061 L-4.5,-3.104413630282851 L-4.5,-3.041843629578263 L-4.5,-2.9895908749771953 L-4.5,-2.9502755377838468 L-4.5,-2.925869053171643 L-4.5,-2.9175952641916454 " />
			<path d="M-4.5,-1.5449999999999993 L-4.5,-1.5532737889799975 L-4.5,-1.5776802735922009 L-4.5,-1.6169956107855494 L-4.5,-1.6692483653866172 L-4.5,-1.7318183660912052 L-4.5,-1.8015680917944155 L-4.5,-1.8749999999999993 L-4.5,-1.948431908205583 L-4.5,-2.0181816339087937 L-4.5,-2.080751634613381 L-4.5,-2.1330043892144492 L-4.5,-2.172319726407798 L-4.5,-2.196726211020001 L-4.5,-2.204999999999999 " />
			<path d="M-4.5,-2.204999999999999 L-4.5,-2.196726211020001 L-4.5,-2.172319726407798 L-4.5,-2.1330043892144492 L-4.5,-2.0807516346133816 L-4.5,-2.0181816339087937 L-4.5,-1.9484319082055832 L-4.5,-1.8749999999999993 L-4.5,-1.8015680917944157 L-4.5,-1.7318183660912052 L-4.5,-1.6692483653866172 L-4.5,-1.6169956107855494 L-4.5,-1.577680273592201 L-4.5,-1.5532737889799977 L-4.5,-1.5449999999999995 " />
			<path d="M-4.5,4.08 L-4.5,4.071726211020001 L-4.5,4.047319726407799 L-4.5,4.00800438921445 L-4.5,3.955751634613382 L-4.5,3.893181633908794 L-4.5,3.823431908205584 L-4.5,3.75 L-4.5,3.676568091794416 L-4.5,3.606818366091206 L-4.5,3.544248365386618 L-4.5,3.4919956107855503 L-4.5,3.4526802735922018 L-4.5,3.428273788979998 L-4.5,3.42 " />
			<path d="M-4.5,3.42 L-4.5,3.428273788979998 L-4.5,3.4526802735922018 L-4.5,3.4919956107855503 L-4.5,3.544248365386618 L-4.5,3.606818366091206 L-4.5,3.676568091794416 L-4.5,3.75 L-4.5,3.823431908205584 L-4.5,3.893181633908794 L-4.5,3.955751634613382 L-4.5,4.00800438921445 L-4.5,4.047319726407799 L-4.5,4.071726211020001 L-4.5,4.08 " />
			<path d="M-4.5,3.577595264191645 L-4.5,3.569321475211647 L-4.5,3.5449149905994433 L-4.5,3.5055996534060947 L-4.5,3.453346898805027 L-4.5,3.390776898100439 L-4.5,3.321027172397229 L-4.5,3.247595264191645 L-4.5,3.174163355986061 L-4.5,3.104413630282851 L-4.5,3.041843629578263 L-4.5,2.9895908749771953 L-4.5,2.9502755377838468 L-4.5,2.925869053171643 L-4.5,2.917595264191645 " />
			<path d="M-4.5,2.917595264191645 L-4.5,2.925869053171643 L-4.5,2.9502755377838468 L-4.5,2.9895908749771953 L-4.5,3.041843629578263 L-4.5,3.104413630282851 L-4.5,3.174163355986061 L-4.5,3.247595264191645 L-4.5,3.321027172397229 L-4.5,3.390776898100439 L-4.5,3.453346898805027 L-4.5,3.5055996534060947 L-4.5,3.5449149905994433 L-4.5,3.569321475211647 L-4.5,3.5775952641916446 " />
			<path d="M-4.5,0.33000000000000024 L-4.5,0.32172621102000204 L-4.5,0.2973197264077986 L-4.5,0.25800438921445007 L-4.5,0.2057516346133823 L-4.5,0.14318163390879443 L-4.5,0.07343190820558401 L-4.5,2.498279470260601e-16 L-4.5,-0.0734319082055835 L-4.5,-0.14318163390879396 L-4.5,-0.20575163461338183 L-4.5,-0.25800438921444957 L-4.5,-0.2973197264077981 L-4.5,-0.3217262110200016 L-4.5,-0.3299999999999996 " />
			<path d="M-4.5,-0.3299999999999998 L-4.5,-0.3217262110200016 L-4.5,-0.29731972640779813 L-4.5,-0.2580043892144497 L-4.5,-0.20575163461338186 L-4.5,-0.14318163390879401 L-4.5,-0.07343190820558358 L-4.5,1.6900125828233476e-16 L-4.5,0.07343190820558393 L-4.5,0.14318163390879435 L-4.5,0.20575163461338225 L-4.5,0.25800438921445 L-4.5,0.2973197264077985 L-4.5,0.321726211020002 L-4.5,0.3299999999999999 " />
			<path d="M-4.5,2.2050000000000005 L-4.5,2.1967262110200023 L-4.5,2.1723197264077987 L-4.5,2.13300438921445 L-4.5,2.0807516346133825 L-4.5,2.0181816339087946 L-4.5,1.9484319082055843 L-4.5,1.8750000000000004 L-4.5,1.8015680917944168 L-4.5,1.7318183660912063 L-4.5,1.6692483653866184 L-4.5,1.6169956107855508 L-4.5,1.5776802735922022 L-4.5,1.5532737889799986 L-4.5,1.5450000000000006 " />
			<path d="M-4.5,1.5450000000000004 L-4.5,1.5532737889799986 L-4.5,1.5776802735922022 L-4.5,1.6169956107855505 L-4.5,1.6692483653866184 L-4.5,1.7318183660912063 L-4.5,1.8015680917944166 L-4.5,1.8750000000000004 L-4.5,1.948431908205584 L-4.5,2.0181816339087946 L-4.5,2.0807516346133825 L-4.5,2.13300438921445 L-4.5,2.1723197264077987 L-4.5,2.1967262110200023 L-4.5,2.205 " />
			<path d="M-9.0,10.7 L-9.0,10.431728660345511 L-9.0,9.640366886555885 L-9.0,8.365596862407918 L-9.0,6.671340879888449 L-9.0,4.6425560085578725 L-9.0,2.3809739933325647 L-9.0,6.55186037543834e-16 L-9.0,-2.3809739933325633 L-9.0,-4.642556008557871 L-9.0,-6.671340879888448 L-9.0,-8.365596862407918 L-9.0,-9.640366886555883 L-9.0,-10.431728660345511 L-9.0,-10.699999999999994 " />
			<path d="M-9.0,-1.5450000000000017 L-9.0,-1.55327378898 L-9.0,-1.5776802735922035 L-9.0,-1.6169956107855519 L-9.0,-1.6692483653866197 L-9.0,-1.7318183660912077 L-9.0,-1.801568091794418 L-9.0,-1.8750000000000018 L-9.0,-1.9484319082055854 L-9.0,-2.018181633908796 L-9.0,-2.080751634613384 L-9.0,-2.1330043892144515 L-9.0,-2.1723197264078 L-9.0,-2.1967262110200036 L-9.0,-2.205000000000002 " />
			<path d="M-9.0,-2.205000000000002 L-9.0,-2.1967262110200036 L-9.0,-2.1723197264078 L-9.0,-2.1330043892144515 L-9.0,-2.080751634613384 L-9.0,-2.018181633908796 L-9.0,-1.9484319082055856 L-9.0,-1.8750000000000018 L-9.0,-1.8015680917944181 L-9.0,-1.7318183660912077 L-9.0,-1.6692483653866197 L-9.0,-1.616995610785552 L-9.0,-1.5776802735922035 L-9.0,-1.55327378898 L-9.0,-1.545000000000002 " />
			<path d="M-9.0,0.32999999999999935 L-9.0,0.32172621102000115 L-9.0,0.2973197264077977 L-9.0,0.2580043892144492 L-9.0,0.2057516346133814 L-9.0,0.14318163390879352 L-9.0,0.07343190820558308 L-9.0,-6.686571523344548e-16 L-9.0,-0.07343190820558443 L-9.0,-0.14318163390879488 L-9.0,-0.20575163461338275 L-9.0,-0.25800438921445046 L-9.0,-0.29731972640779897 L-9.0,-0.3217262110200025 L-9.0,-0.3300000000000005 " />
			<path d="M-9.0,-0.3300000000000007 L-9.0,-0.3217262110200025 L-9.0,-0.297319726407799 L-9.0,-0.25800438921445057 L-9.0,-0.20575163461338278 L-9.0,-0.14318163390879493 L-9.0,-0.07343190820558451 L-9.0,-7.494838410781801e-16 L-9.0,0.073431908205583 L-9.0,0.14318163390879343 L-9.0,0.20575163461338133 L-9.0,0.2580043892144491 L-9.0,0.29731972640779764 L-9.0,0.3217262110200011 L-9.0,0.329999999999999 " />
			<path d="M-9.0,2.2050000000000005 L-9.0,2.1967262110200023 L-9.0,2.1723197264077987 L-9.0,2.13300438921445 L-9.0,2.0807516346133825 L-9.0,2.0181816339087946 L-9.0,1.9484319082055843 L-9.0,1.8750000000000004 L-9.0,1.8015680917944168 L-9.0,1.7318183660912063 L-9.0,1.6692483653866184 L-9.0,1.6169956107855508 L-9.0,1.5776802735922022 L-9.0,1.5532737889799986 L-9.0,1.5450000000000006 " />
			<path d="M-9.0,1.5450000000000004 L-9.0,1.5532737889799986 L-9.0,1.5776802735922022 L-9.0,1.6169956107855505 L-9.0,1.6692483653866184 L-9.0,1.7318183660912063 L-9.0,1.8015680917944166 L-9.0,1.8750000000000004 L-9.0,1.948431908205584 L-9.0,2.0181816339087946 L-9.0,2.0807516346133825 L-9.0,2.13300438921445 L-9.0,2.1723197264077987 L-9.0,2.1967262110200023 L-9.0,2.205 " />
			<path d="M-9.0,-2.9175952641916454 L-9.0,-2.9258690531716436 L-9.0,-2.950275537783847 L-9.0,-2.989590874977196 L-9.0,-3.0418436295782634 L-9.0,-3.1044136302828513 L-9.0,-3.1741633559860616 L-9.0,-3.2475952641916455 L-9.0,-3.3210271723972293 L-9.0,-3.3907768981004396 L-9.0,-3.4533468988050275 L-9.0,-3.505599653406095 L-9.0,-3.5449149905994437 L-9.0,-3.5693214752116473 L-9.0,-3.5775952641916455 " />
			<path d="M-9.0,-3.5775952641916455 L-9.0,-3.5693214752116473 L-9.0,-3.5449149905994437 L-9.0,-3.5055996534060956 L-9.0,-3.4533468988050275 L-9.0,-3.3907768981004396 L-9.0,-3.3210271723972293 L-9.0,-3.2475952641916455 L-9.0,-3.1741633559860616 L-9.0,-3.1044136302828513 L-9.0,-3.0418436295782634 L-9.0,-2.989590874977196 L-9.0,-2.950275537783847 L-9.0,-2.9258690531716436 L-9.0,-2.917595264191646 " />
			<path d="M-9.0,3.577595264191644 L-9.0,3.569321475211646 L-9.0,3.5449149905994424 L-9.0,3.505599653406094 L-9.0,3.453346898805026 L-9.0,3.3907768981004383 L-9.0,3.321027172397228 L-9.0,3.247595264191644 L-9.0,3.1741633559860603 L-9.0,3.10441363028285 L-9.0,3.041843629578262 L-9.0,2.9895908749771944 L-9.0,2.950275537783846 L-9.0,2.9258690531716423 L-9.0,2.917595264191644 " />
			<path d="M-9.0,2.917595264191644 L-9.0,2.9258690531716423 L-9.0,2.950275537783846 L-9.0,2.9895908749771944 L-9.0,3.041843629578262 L-9.0,3.10441363028285 L-9.0,3.1741633559860603 L-9.0,3.247595264191644 L-9.0,3.321027172397228 L-9.0,3.3907768981004383 L-9.0,3.453346898805026 L-9.0,3.505599653406094 L-9.0,3.5449149905994424 L-9.0,3.569321475211646 L-9.0,3.5775952641916438 " />
			<path d="M-9.0,-3.42 L-9.0,-3.428273788979998 L-9.0,-3.4526802735922018 L-9.0,-3.4919956107855503 L-9.0,-3.544248365386618 L-9.0,-3.606818366091206 L-9.0,-3.676568091794416 L-9.0,-3.75 L-9.0,-3.823431908205584 L-9.0,-3.893181633908794 L-9.0,-3.955751634613382 L-9.0,-4.00800438921445 L-9.0,-4.047319726407799 L-9.0,-4.071726211020001 L-9.0,-4.08 " />
			<path d="M-9.0,-4.08 L-9.0,-4.071726211020001 L-9.0,-4.047319726407799 L-9.0,-4.00800438921445 L-9.0,-3.955751634613382 L-9.0,-3.893181633908794 L-9.0,-3.823431908205584 L-9.0,-3.75 L-9.0,-3.676568091794416 L-9.0,-3.606818366091206 L-9.0,-3.544248365386618 L-9.0,-3.4919956107855503 L-9.0,-3.4526802735922018 L-9.0,-3.428273788979998 L-9.0,-3.4200000000000004 " />
			<path d="M-9.0,-2.917595264191645 L-9.0,-2.925869053171643 L-9.0,-2.9502755377838468 L-9.0,-2.9895908749771953 L-9.0,-3.041843629578263 L-9.0,-3.104413630282851 L-9.0,-3.174163355986061 L-9.0,-3.247595264191645 L-9.0,-3.321027172397229 L-9.0,-3.390776898100439 L-9.0,-3.453346898805027 L-9.0,-3.5055996534060947 L-9.0,-3.5449149905994433 L-9.0,-3.569321475211647 L-9.0,-3.577595264191645 " />
			<path d="M-9.0,-3.577595264191645 L-9.0,-3.569321475211647 L-9.0,-3.5449149905994433 L-9.0,-3.5055996534060947 L-9.0,-3.453346898805027 L-9.0,-3.390776898100439 L-9.0,-3.321027172397229 L-9.0,-3.247595264191645 L-9.0,-3.174163355986061 L-9.0,-3.104413630282851 L-9.0,-3.041843629578263 L-9.0,-2.9895908749771953 L-9.0,-2.9502755377838468 L-9.0,-2.925869053171643 L-9.0,-2.9175952641916454 " />
			<path d="M-9.0,-1.5449999999999993 L-9.0,-1.5532737889799975 L-9.0,-1.5776802735922009 L-9.0,-1.6169956107855494 L-9.0,-1.6692483653866172 L-9.0,-1.7318183660912052 L-9.0,-1.8015680917944155 L-9.0,-1.8749999999999993 L-9.0,-1.948431908205583 L-9.0,-2.0181816339087937 L-9.0,-2.080751634613381 L-9.0,-2.1330043892144492 L-9.0,-2.172319726407798 L-9.0,-2.196726211020001 L-9.0,-2.204999999999999 " />
			<path d="M-9.0,-2.204999999999999 L-9.0,-2.196726211020001 L-9.0,-2.172319726407798 L-9.0,-2.1330043892144492 L-9.0,-2.0807516346133816 L-9.0,-2.0181816339087937 L-9.0,-1.9484319082055832 L-9.0,-1.8749999999999993 L-9.0,-1.8015680917944157 L-9.0,-1.7318183660912052 L-9.0,-1.6692483653866172 L-9.0,-1.6169956107855494 L-9.0,-1.577680273592201 L-9.0,-1.5532737889799977 L-9.0,-1.5449999999999995 " />
			<path d="M-9.0,0.33000000000000024 L-9.0,0.32172621102000204 L-9.0,0.2973197264077986 L-9.0,0.25800438921445007 L-9.0,0.2057516346133823 L-9.0,0.14318163390879443 L-9.0,0.07343190820558401 L-9.0,2.498279470260601e-16 L-9.0,-0.0734319082055835 L-9.0,-0.14318163390879396 L-9.0,-0.20575163461338183 L-9.0,-0.25800438921444957 L-9.0,-0.2973197264077981 L-9.0,-0.3217262110200016 L-9.0,-0.3299999999999996 " />
			<path d="M-9.0,-0.3299999999999998 L-9.0,-0.3217262110200016 L-9.0,-0.29731972640779813 L-9.0,-0.2580043892144497 L-9.0,-0.20575163461338186 L-9.0,-0.14318163390879401 L-9.0,-0.07343190820558358 L-9.0,1.6900125828233476e-16 L-9.0,0.07343190820558393 L-9.0,0.14318163390879435 L-9.0,0.20575163461338225 L-9.0,0.25800438921445 L-9.0,0.2973197264077985 L-9.0,0.321726211020002 L-9.0,0.3299999999999999 " />
			<path d="M-9.0,2.2050000000000005 L-9.0,2.1967262110200023 L-9.0,2.1723197264077987 L-9.0,2.13300438921445 L-9.0,2.0807516346133825 L-9.0,2.0181816339087946 L-9.0,1.9484319082055843 L-9.0,1.8750000000000004 L-9.0,1.8015680917944168 L-9.0,1.7318183660912063 L-9.0,1.6692483653866184 L-9.0,1.6169956107855508 L-9.0,1.5776802735922022 L-9.0,1.5532737889799986 L-9.0,1.5450000000000006 " />
			<path d="M-9.0,1.5450000000000004 L-9.0,1.5532737889799986 L-9.0,1.5776802735922022 L-9.0,1.6169956107855505 L-9.0,1.6692483653866184 L-9.0,1.7318183660912063 L-9.0,1.8015680917944166 L-9.0,1.8750000000000004 L-9.0,1.948431908205584 L-9.0,2.0181816339087946 L-9.0,2.0807516346133825 L-9.0,2.13300438921445 L-9.0,2.1723197264077987 L-9.0,2.1967262110200023 L-9.0,2.205 " />
			<path d="M-9.0,4.08 L-9.0,4.071726211020001 L-9.0,4.047319726407799 L-9.0,4.00800438921445 L-9.0,3.955751634613382 L-9.0,3.893181633908794 L-9.0,3.823431908205584 L-9.0,3.75 L-9.0,3.676568091794416 L-9.0,3.606818366091206 L-9.0,3.544248365386618 L-9.0,3.4919956107855503 L-9.0,3.4526802735922018 L-9.0,3.428273788979998 L-9.0,3.42 " />
			<path d="M-9.0,3.42 L-9.0,3.428273788979998 L-9.0,3.4526802735922018 L-9.0,3.4919956107855503 L-9.0,3.544248365386618 L-9.0,3.606818366091206 L-9.0,3.676568091794416 L-9.0,3.75 L-9.0,3.823431908205584 L-9.0,3.893181633908794 L-9.0,3.955751634613382 L-9.0,4.00800438921445 L-9.0,4.047319726407799 L-9.0,4.071726211020001 L-9.0,4.08 " />
			<path d="M-9.0,3.577595264191645 L-9.0,3.569321475211647 L-9.0,3.5449149905994433 L-9.0,3.5055996534060947 L-9.0,3.453346898805027 L-9.0,3.390776898100439 L-9.0,3.321027172397229 L-9.0,3.247595264191645 L-9.0,3.174163355986061 L-9.0,3.104413630282851 L-9.0,3.041843629578263 L-9.0,2.9895908749771953 L-9.0,2.9502755377838468 L-9.0,2.925869053171643 L-9.0,2.917595264191645 " />
			<path d="M-9.0,2.917595264191645 L-9.0,2.925869053171643 L-9.0,2.9502755377838468 L-9.0,2.9895908749771953 L-9.0,3.041843629578263 L-9.0,3.104413630282851 L-9.0,3.174163355986061 L-9.0,3.247595264191645 L-9.0,3.321027172397229 L-9.0,3.390776898100439 L-9.0,3.453346898805027 L-9.0,3.5055996534060947 L-9.0,3.5449149905994433 L-9.0,3.569321475211647 L-9.0,3.5775952641916446 " />
			<path d="M-6.4,9.90000000000005 L-6.4,9.651786330600103 L-6.4,8.919591792234 L-6.4,7.7401316764335455 L-6.4,6.172549038401513 L-6.4,4.295449017263877 L-6.4,2.202957246167564 L-6.4,5.202102724602983e-14 L-6.4,-2.2029572461674602 L-6.4,-4.295449017263773 L-6.4,-6.172549038401409 L-6.4,-7.740131676433442 L-6.4,-8.919591792233895 L-6.4,-9.6517863306 L-6.4,-9.899999999999942 " />
			<path d="M-6.4,-9.899999999999947 L-6.4,-9.6517863306 L-6.4,-8.919591792233897 L-6.4,-7.740131676433443 L-6.4,-6.17254903840141 L-6.4,-4.295449017263775 L-6.4,-2.2029572461674625 L-6.4,4.959622658371807e-14 L-6.4,2.202957246167562 L-6.4,4.295449017263874 L-6.4,6.172549038401511 L-6.4,7.740131676433545 L-6.4,8.919591792233998 L-6.4,9.651786330600103 L-6.4,9.90000000000004 " />
			<path d="M-4.5,-1.5450000000000017 L-9.0,-1.5450000000000017 " />
			<path d="M-4.5,0.32999999999999935 L-9.0,0.32999999999999935 " />
			<path d="M-4.5,-2.9175952641916454 L-9.0,-2.9175952641916454 " />
			<path d="M-4.5,2.2050000000000005 L-9.0,2.2050000000000005 " />
			<path d="M-4.5,3.577595264191644 L-9.0,3.577595264191644 " />
			<path d="M-4.5,-3.42 L-9.0,-3.42 " />
			<path d="M-4.5,-2.917595264191645 L-9.0,-2.917595264191645 " />
			<path d="M-4.5,-1.5449999999999993 L-9.0,-1.5449999999999993 " />
			<path d="M-4.5,4.08 L-9.0,4.08 " />
			<path d="M-4.5,3.577595264191645 L-9.0,3.577595264191645 " />
			<path d="M-4.5,0.33000000000000024 L-9.0,0.33000000000000024 " />
			<path d="M-4.5,2.2050000000000005 L-9.0,2.2050000000000005 " />
			<path d="M-8.4,-10.7 L-8.4,-10.431728660345511 L-8.4,-9.640366886555885 L-8.4,-8.36559686240792 L-8.4,-6.671340879888449 L-8.4,-4.642556008557873 L-8.4,-2.380973993332566 L-8.4,-1.965558112631502e-15 L-8.4,2.380973993332562 L-8.4,4.64255600855787 L-8.4,6.671340879888446 L-8.4,8.365596862407918 L-8.4,9.640366886555883 L-8.4,10.431728660345511 L-8.4,10.699999999999989 " />
			<path d="M-8.4,9.90000000000005 L-8.4,9.651786330600103 L-8.4,8.919591792234 L-8.4,7.7401316764335455 L-8.4,6.172549038401513 L-8.4,4.295449017263877 L-8.4,2.202957246167564 L-8.4,5.202102724602983e-14 L-8.4,-2.2029572461674602 L-8.4,-4.295449017263773 L-8.4,-6.172549038401409 L-8.4,-7.740131676433442 L-8.4,-8.919591792233895 L-8.4,-9.6517863306 L-8.4,-9.899999999999942 " />
			<path d="M-8.4,-9.899999999999947 L-8.4,-9.6517863306 L-8.4,-8.919591792233897 L-8.4,-7.740131676433443 L-8.4,-6.17254903840141 L-8.4,-4.295449017263775 L-8.4,-2.2029572461674625 L-8.4,4.959622658371807e-14 L-8.4,2.202957246167562 L-8.4,4.295449017263874 L-8.4,6.172549038401511 L-8.4,7.740131676433545 L-8.4,8.919591792233998 L-8.4,9.651786330600103 L-8.4,9.90000000000004 " />
			<path d="M-4.5,-6.449999999999999 L0.0,-6.449999999999999 " />
			<path d="M-9.0,7.2562500000000005 L0.0,7.2562500000000005 " />
			<path d="M-9.0,-2.205000000000002 L-4.5,-2.205000000000002 " />
			<path d="M-9.0,-0.3300000000000007 L-4.5,-0.3300000000000007 " />
			<path d="M-9.0,-3.5775952641916455 L-4.5,-3.5775952641916455 " />
			<path d="M-9.0,1.5450000000000004 L-4.5,1.5450000000000004 " />
			<path d="M-9.0,2.917595264191644 L-4.5,2.917595264191644 " />
			<path d="M-9.0,-4.08 L-4.5,-4.08 " />
			<path d="M-9.0,-3.577595264191645 L-4.5,-3.577595264191645 " />
			<path d="M-9.0,-2.204999999999999 L-4.5,-2.204999999999999 " />
			<path d="M-9.0,3.42 L-4.5,3.42 " />
			<path d="M-9.0,2.917595264191645 L-4.5,2.917595264191645 " />
			<path d="M-9.0,-0.3299999999999998 L-4.5,-0.3299999999999998 " />
			<path d="M-9.0,1.5450000000000004 L-4.5,1.5450000000000004 " />

       </g>

       <!-- solid lines -->
       <g  stroke="rgb(200,200,200)" fill="none">
			<path d="M0.0,12.5 L-5.0,12.5 " />
			<path d="M0.0,-12.5 L0.0,-12.186598902272795 L0.0,-11.262110848780239 L0.0,-9.772893530850373 L0.0,-7.79362252323417 L0.0,-5.4235467389694785 L0.0,-2.7815116744539323 L0.0,-2.296212748401287e-15 L0.0,2.781511674453928 L0.0,5.423546738969474 L0.0,7.793622523234167 L0.0,9.772893530850371 L0.0,11.262110848780239 L0.0,12.186598902272793 L0.0,12.499999999999988 " />
			<path d="M-5.0,-12.5 L-5.0,-12.186598902272795 L-5.0,-11.262110848780239 L-5.0,-9.772893530850373 L-5.0,-7.79362252323417 L-5.0,-5.4235467389694785 L-5.0,-2.7815116744539323 L-5.0,-2.296212748401287e-15 L-5.0,2.781511674453928 L-5.0,5.423546738969474 L-5.0,7.793622523234167 L-5.0,9.772893530850371 L-5.0,11.262110848780239 L-5.0,12.186598902272793 L-5.0,12.499999999999988 " />
			<path d="M-5.000000000000001,10.7 L-6.4,10.7 " />
			<path d="M-6.4,10.7 L-6.4,10.431728660345511 L-6.4,9.640366886555885 L-6.4,8.365596862407918 L-6.4,6.671340879888449 L-6.4,4.6425560085578725 L-6.4,2.3809739933325647 L-6.4,6.55186037543834e-16 L-6.4,-2.3809739933325633 L-6.4,-4.642556008557871 L-6.4,-6.671340879888448 L-6.4,-8.365596862407918 L-6.4,-9.640366886555883 L-6.4,-10.431728660345511 L-6.4,-10.699999999999994 " />
			<path d="M-9.0,-10.7 L-9.0,-10.431728660345511 L-9.0,-9.640366886555885 L-9.0,-8.36559686240792 L-9.0,-6.671340879888449 L-9.0,-4.642556008557873 L-9.0,-2.380973993332566 L-9.0,-1.965558112631502e-15 L-9.0,2.380973993332562 L-9.0,4.64255600855787 L-9.0,6.671340879888446 L-9.0,8.365596862407918 L-9.0,9.640366886555883 L-9.0,10.431728660345511 L-9.0,10.699999999999989 " />
			<path d="M-8.4,10.7 L-8.4,10.431728660345511 L-8.4,9.640366886555885 L-8.4,8.365596862407918 L-8.4,6.671340879888449 L-8.4,4.6425560085578725 L-8.4,2.3809739933325647 L-8.4,6.55186037543834e-16 L-8.4,-2.3809739933325633 L-8.4,-4.642556008557871 L-8.4,-6.671340879888448 L-8.4,-8.365596862407918 L-8.4,-9.640366886555883 L-8.4,-10.431728660345511 L-8.4,-10.699999999999994 " />
			<path d="M-8.4,10.7 L-9.0,10.7 " />
			<path d="M-6.4,9.90000000000005 L-8.4,9.90000000000005 " />
			<path d="M-5.0,-12.5 L0.0,-12.5 " />
			<path d="M-6.4,-10.7 L-5.000000000000001,-10.7 " />
			<path d="M-9.0,-10.7 L-8.4,-10.7 " />
			<path d="M-8.4,-9.899999999999947 L-6.4,-9.899999999999947 " />

       </g>
    </g>
    
</svg>
