<?xml version="1.0" encoding="UTF-8" standalone="no"?>
<svg
   xmlns:svg="http://www.w3.org/2000/svg"
   xmlns="http://www.w3.org/2000/svg"
   viewBox="181.25 5.24 412.50 324.74"

>
    <g transform="scale(6.239177481057773, -6.239177481057773)   translate(83.32074904981485,-39.111334783901754)" stroke-width="0.5"  fill="none">
       <!-- hidden lines -->
       <g  stroke="rgb(80,80,80)" fill="none" stroke-dasharray="0.5,0.5" >
			<path d="M6.249999999999998,10.825317547305485 L6.094734938583073,10.910612694639756 L5.935798636735963,10.989335696860861 L5.77328683174389,11.061439134175908 L5.607297414641476,11.126879574170378 L5.437930371246835,11.185617597970191 L5.265287721933868,11.23761782398617 L5.089473460178998,11.282848929226576 L4.910593489919387,11.321283668164911 L4.728755561760366,11.352898889151605 L4.544069208070499,11.377675548359708 L4.356645677003383,11.39559872125617 L4.1665978654859135,11.406657611591827 L3.974040251213406,11.410845557904665 L3.7790888236925024,11.408160037532417 L3.5818610143734406,11.398602668132138 L3.38247562591373,11.382179206705786 L3.1810527606158785,11.358899546132406 L2.977713748082256,11.328777709209048 L2.772581072130678,11.291831840203944 L2.5657782970147323,11.248084193927092 L2.357429992993294,11.197561122324775 L2.1476616612940624,11.140293058606149 L1.9365996585163094,11.076314498911406 L1.724371120518392,11.005663981532596 L1.511103885835862,10.928384063699593 L1.296926418676321,10.844521295945219 L1.08196773153737,10.754126194064934 L0.866357307494319,10.657253208688026 L0.6502250222044207,10.553960692478567 L0.43370106567462624,10.444310864985969 L0.21691586383999834,10.328369775166243 L-2.26701073273893e-15,10.206207261596575 L-0.21691586384000286,10.077896910407192 L-0.4337010656746316,9.94351601095582 L-0.6502250222044252,9.80314550927146 L-0.8663573074943227,9.656869959295532 L-1.0819677315373726,9.504777471949753 L-1.2969264186763239,9.346959662061394 L-1.5111038858358663,9.18351159317794 L-1.7243711205183945,9.014531720304374 L-1.9365996585163137,8.840121830597546 L-2.1476616612940673,8.660386982053414 L-2.3574299929932967,8.47543544022402 L-2.565778297014733,8.28537861300238 L-2.772581072130678,8.090330983514528 L-2.9777137480822584,7.890410041159167 L-3.181052760615882,7.685736210836445 L-3.3824756259137323,7.476432780408504 L-3.5818610143734424,7.262625826435475 L-3.779088823692506,7.044444138231669 L-3.974040251213409,6.822019140287725 L-4.166597865485916,6.5954848131054 L-4.356645677003385,6.364977612492723 L-4.544069208070501,6.1306363873681216 L-4.728755561760366,5.89260229612303 L-4.91059348991939,5.651018721593344 L-5.0894734601790015,5.40603118469097 L-5.265287721933872,5.157787256747467 L-5.4379303712468365,4.9064364706225865 L-5.607297414641477,4.652130230631279 L-5.773286831743891,4.395021721343394 L-5.9357986367359645,4.135265815311016 L-6.094734938583077,3.8730189797790437 L-6.250000000000001,3.6084391824351614 L-6.4015002951194795,3.3416857962560127 L-6.549144565828691,3.072919503506877 L-6.692843876739737,2.8023021989526895 L-6.832511668760986,2.5299968923386844 L-6.968063811237039,2.256167610199411 L-7.099418652625892,1.9809792970552949 L-7.2264970696827655,1.7045977160562198 L-7.349222515120992,1.4271893491320031 L-7.467521063721241,1.148921296709917 L-7.5813214568613,0.8699611770596294 L-7.690555145439615,0.5904770253262245 L-7.795156331166695,0.310637192312122 L-7.895062006199551,0.030610243068842916 L-7.990211991095255,-0.24943514464027278 L-8.080548971060795,-0.5293302819452379 L-8.166018530477354,-0.8089065704812914 L-8.246569185678254,-1.087995603946253 L-8.322152415960785,-1.3664292695421731 L-8.392722692813264,-1.6440398492402013 L-8.458237507339705,-1.9206601208076566 L-8.518657395865597,-2.1961234585364444 L-8.573945963709336,-2.4702639336121557 L-8.624069907105028,-2.742916414063377 L-8.668999033263422,-3.0139166642310165 L-8.708706278558932,-3.2831014436977273 L-8.74316772483174,-3.5503086056178246 L-8.772362613795206,-3.815377194388486 L-8.79627335953989,-4.078147542603396 L-8.814885559126633,-4.3384613672304 L-8.82818800126236,-4.596161864955299 L-8.836172673053337,-4.851093806634311 L-8.838834764831844,-5.103103630798287 L-8.836172673053337,-5.352039536152406 L-8.82818800126236,-5.597751573015595 L-8.814885559126633,-5.840091733644612 L-8.79627335953989,-6.078914041388383 L-8.772362613795208,-6.314074638618856 L-8.74316772483174,-6.54543187338548 L-8.70870627855893,-6.772846384741038 L-8.668999033263422,-6.996181186687467 L-8.624069907105026,-7.215301750691099 L-8.573945963709336,-7.430076086717625 L-8.518657395865597,-7.640374822737952 L-8.458237507339705,-7.846071282657079 L-8.392722692813264,-8.047041562619034 L-8.322152415960785,-8.243164605641931 L-8.246569185678254,-8.434322274538172 L-8.166018530477354,-8.620399423075854 L-8.080548971060793,-8.801283965338571 L-7.990211991095254,-8.97686694324177 L-7.8950620061995505,-9.147042592165036 L-7.7951563311666945,-9.311708404660735 L-7.690555145439614,-9.47076519220067 L-7.5813214568613,-9.624117144923543 L-7.4675210637212395,-9.771671889347234 L-7.349222515120994,-9.91334054401113 L-7.226497069682767,-10.04903777301499 L-7.099418652625894,-10.17868183742211 L-6.968063811237042,-10.302194644495797 L-6.832511668760985,-10.419501794739512 L-6.692843876739733,-10.530532626712342 L-6.549144565828689,-10.635220259592815 L-6.401500295119478,-10.73350163346541 L-6.2500000000000275,-10.825317547305467 " />
			<path d="M7.778174593052023,4.490731195102491 L7.7758319522869375,4.709794791814116 L7.768805441110876,4.92602138425373 L7.757099292031437,5.139280725607267 L7.740720556395104,5.349444356421779 L7.719679100139782,5.556385681984593 L7.6939875978519305,5.75998004857922 L7.663661525131859,5.960104818572111 L7.628719149271811,6.156639444284969 L7.589181518252423,6.349465540608166 L7.545072448064216,6.53846695631151 L7.496418508361725,6.723529844009398 L7.44324900645894,6.904542728738227 L7.385595969675672,7.0813965751047485 L7.3234941260454915,7.2539848529649005 L7.2569808833968645,7.422203601593589 L7.1860963068200725,7.585951492306748 L7.110883094533501,7.745129889497936 L7.031386552163827,7.899642910052751 L6.947654565455608,8.049397481105226 L6.859737571426695,8.194303396101441 L6.767688527986865,8.334273369136584 L6.671562882037947,8.469223087532711 L6.571418536074693,8.599071262625566 L6.467315813306474,8.72373967872979 L6.359317421320836,8.843153240253189 L6.247488414310784,8.957240016931461 L6.131896153888593,9.065931287156303 L6.012610268509666,9.16916157937077 L5.889702611530967,9.266868711506861 L5.763247217929248,9.358993828441678 L5.633320259705141,9.445481437449562 L5.50000000000005,9.526279441628796 " />
			<path d="M5.499999999999999,9.526279441628827 L5.363366745953105,9.601339171282985 L5.2235028003276485,9.67061541323756 L5.080492411934624,9.7340664380748 L4.934421724884499,9.791654025269931 L4.785378726697214,9.843343486213769 L4.633453195301803,9.889103685107829 L4.478736644957518,9.928907057719385 L4.321322271129061,9.962729627985121 L4.161304894349121,9.990551022453413 L3.9987809031020394,10.012354482556542 L3.8338481957629766,10.028126874705428 L3.6666061216276042,10.03785869820081 L3.497155421067797,10.041544090956105 L3.3255981648494024,10.039180833028526 L3.1520376926486273,10.030770347956281 L2.9765785508040823,10.016317701901091 L2.799326429341972,9.995831600596517 L2.6203880983123855,9.969324384103961 L2.439871343474996,9.936812019379472 L2.2578849013729636,9.89831409065584 L2.074538393834098,9.853853787645802 L1.8899422619387747,9.80345789157341 L1.7042076994943525,9.747156759042037 L1.517446586056185,9.684984303748685 L1.3297714195355588,9.616977976055642 L1.141295248435163,9.543178740431792 L0.9521316037528855,9.463631050777144 L0.762394430595001,9.378382823645461 L0.5721980195398908,9.287485409381139 L0.38165693779367116,9.190993561187653 L0.19088596017919857,9.088965402146293 L-2.2081322655382885e-15,8.981462390204985 L-0.1908859601792021,8.86854928115833 L-0.3816569377936751,8.750294089641121 L-0.5721980195398948,8.626768048158883 L-0.7623944305950049,8.49804556418007 L-0.9521316037528885,8.364204175315782 L-1.1412952484351644,8.225324502614026 L-1.3297714195355637,8.081490201996587 L-1.5174465860561877,7.932787913867848 L-1.7042076994943558,7.7793072109258405 L-1.889942261938779,7.621140544207004 L-2.074538393834101,7.458383187397138 L-2.2578849013729654,7.291133179442095 L-2.439871343474998,7.119491265492785 L-2.6203880983123886,6.943560836220066 L-2.799326429341976,6.7634478655360715 L-2.976578550804084,6.579260846759484 L-3.15203769264863,6.391110727263217 L-3.3255981648494055,6.199110841643869 L-3.497155421067801,6.003376843453198 L-3.666606121627607,5.804026635532752 L-3.833848195762979,5.6011802989935955 L-3.998780903102041,5.394960020883947 L-4.161304894349123,5.185490020588267 L-4.321322271129063,4.972896475002143 L-4.4787366449575226,4.757307442528054 L-4.633453195301807,4.538852785937771 L-4.785378726697216,4.317664094147876 L-4.9344217248844995,4.093874602955526 L-5.080492411934625,3.867619114782187 L-5.223502800327649,3.6390339174736948 L-5.363366745953107,3.4082567022055583 L-5.500000000000001,3.175426480542942 L-5.633320259705142,2.9406835007052914 L-5.763247217929249,2.704169163086052 L-5.889702611530969,2.4660259350783673 L-6.012610268509668,2.2263972652580426 L-6.1318961538885945,1.985427496975482 L-6.247488414310785,1.7432617814086595 L-6.359317421320834,1.5000459901294732 L-6.467315813306473,1.2559266272361624 L-6.571418536074692,1.0110507411047271 L-6.671562882037944,0.765565835812474 L-6.76768852798686,0.5196197822870774 L-6.859737571426693,0.2733607292346676 L-6.947654565455606,0.026937013900581806 L-7.031386552163825,-0.21950292728343992 L-7.1108830945335,-0.46581064811180944 L-7.186096306820071,-0.7118377820235358 L-7.256980883396864,-0.9574361314727028 L-7.3234941260454915,-1.2024577571971125 L-7.385595969675673,-1.446755067331377 L-7.443249006458941,-1.6901809063107371 L-7.496418508361725,-1.9325886435120705 L-7.545072448064217,-2.1738322615786974 L-7.589181518252424,-2.4137664443757707 L-7.628719149271811,-2.6522466645232945 L-7.66366152513186,-2.8891292704539997 L-7.6939875978519305,-3.1242715729436856 L-7.719679100139782,-3.357531931061868 L-7.740720556395104,-3.588769837490989 L-7.757099292031438,-3.817846003162752 L-7.768805441110877,-4.044622441160663 L-7.775831952286937,-4.268962549838195 L-7.778174593052023,-4.490731195102493 L-7.775831952286937,-4.709794791814117 L-7.768805441110876,-4.9260213842537235 L-7.757099292031438,-5.139280725607259 L-7.740720556395104,-5.3494443564217775 L-7.719679100139782,-5.556385681984593 L-7.69398759785193,-5.759980048579221 L-7.663661525131859,-5.9601048185721135 L-7.628719149271812,-6.156639444284971 L-7.589181518252423,-6.3494655406081675 L-7.545072448064215,-6.53846695631151 L-7.496418508361725,-6.723529844009398 L-7.443249006458941,-6.904542728738229 L-7.385595969675672,-7.08139657510475 L-7.323494126045491,-7.2539848529649005 L-7.256980883396864,-7.42220360159359 L-7.186096306820071,-7.585951492306751 L-7.110883094533498,-7.745129889497942 L-7.0313865521638235,-7.899642910052758 L-6.947654565455604,-8.049397481105231 L-6.859737571426692,-8.194303396101446 L-6.76768852798686,-8.33427336913659 L-6.671562882037944,-8.469223087532718 L-6.571418536074692,-8.599071262625566 L-6.467315813306475,-8.723739678729793 L-6.359317421320835,-8.84315324025319 L-6.247488414310787,-8.957240016931456 L-6.131896153888596,-9.065931287156301 L-6.0126102685096665,-9.169161579370769 L-5.889702611530966,-9.266868711506861 L-5.763247217929247,-9.358993828441678 L-5.63332025970514,-9.445481437449562 L-5.500000000000025,-9.52627944162881 " />
			<path d="M-5.5,-9.526279441628825 L-5.397831185395102,-9.583114734036435 L-5.29383338905845,-9.636702918266726 L-5.188041849229829,-9.687025836691825 L-5.080492411934626,-9.734066438074798 L-4.9712215188379,-9.777808783347222 L-4.860266194896601,-9.818238051009933 L-4.747664035814183,-9.855340542155082 L-4.633453195301806,-9.88910368510783 L-4.51767237215046,-9.919516039686084 L-4.400360797118416,-9.946567301076849 L-4.281558219638417,-9.970248303327875 L-4.161304894349122,-9.990551022453413 L-4.039641567455363,-10.007468579153032 L-3.9166094629218566,-10.020995241142586 L-3.792250268505011,-10.031126425096504 L-3.666606121627607,-10.03785869820081 L-3.539719595101104,-10.041189779316257 L-3.411633682700423,-10.041118539751292 L-3.2823917845960797,-10.037645003644467 L-3.152037692648632,-10.030770347956283 L-3.0206155755704134,-10.020496902070382 L-2.8881699639595535,-10.00682814700427 L-2.7547457352113915,-9.98976871422982 L-2.620388098312388,-9.969324384103963 L-2.485142578521661,-9.945502083910087 L-2.3490550019453793,-9.91830988551083 L-2.212171480009214,-9.887757002613034 L-2.0745383938341004,-9.853853787645802 L-1.9362023785206297,-9.81661172825273 L-1.7972103073473802,-9.776043443399457 L-1.6576092758885328,-9.732162679097918 L-1.517446586056188,-9.684984303748685 L-1.3767697300727555,-9.634524303103014 L-1.2356263743788607,-9.58079977484629 L-1.094064343482203,-9.523828922804704 L-0.9521316037528904,-9.463631050777144 L-0.8098762471706822,-9.40022655599436 L-0.6673464750296714,-9.333636922207637 L-0.5245905816059362,-9.263884712409322 L-0.38165693779367604,-9.190993561187655 L-0.23859397471539046,-9.11498816671852 L-0.0954501673116548,-9.035894282396791 L0.047725982083949056,-8.953738708110155 L0.19088596017920031,-8.868549281158332 L0.33398125916129734,-8.780354866820776 L0.4769633931330803,-8.689185348576084 L0.6197839145418182,-8.595071617976366 L0.7623944305950013,-8.498045564180071 L0.9047466196575659,-8.398140063146794 L1.0467922476250622,-8.295388966497669 L1.1884831842670827,-8.189827090045242 L1.329771419535557,-8.081490201996592 L1.4706090798323057,-7.970415010833755 L1.6109484442303519,-7.856639152875563 L1.750741960643513,-7.740201179525085 L1.8899422619387776,-7.621140544207004 L2.028502181986011,-7.499497588999371 L2.1663747716395645,-7.375313530964228 L2.3035133146463482,-7.248630448181774 L2.439871343474996,-7.119491265492786 L2.5754026550607794,-6.987939739954096 L2.7100613264608633,-6.854020446012125 L2.843801730414673,-6.71777876039945 L2.9765785508040805,-6.579260846759488 L3.108346798008152,-6.438513640004593 L3.2390618241472713,-6.295584830412785 L3.3686793382114617,-6.150522847468557 L3.4971554210677938,-6.003376843453206 L3.6244465403417983,-5.85419667679023 L3.7505095651678113,-5.703032895151489 L3.8753017808032695,-5.549936718329835 L3.998780903102035,-5.394960020883956 L4.120905092841801,-5.238155314561391 L4.241632969900746,-5.079575730505644 L4.360923627278617,-4.919275001253414 L4.478736644957518,-4.757307442528059 L4.595032103597683,-4.593727934835445 L4.709770598063597,-4.428591904868441 L4.822913250775895,-4.261955306726328 L4.934421724884497,-4.093874602955531 L5.044258237258538,-3.9244067454180205 L5.152385571288668,-3.753609155993968 L5.25876708949737,-3.581539707125136 L5.363366745953102,-3.408256702205568 L5.466149098483953,-3.233818855826279 L5.567079320686752,-3.0582852738806166 L5.666123213727512,-2.8817154335370336 L5.763247217929247,-2.704169163086055 L5.858418424143206,-2.5257066216682773 L5.9516045848997,-2.346388278890259 L6.042774125334707,-2.16627489433522 L6.131896153888592,-1.9854274969754877 L6.2189404727732995,-1.8039073644936343 L6.303877588204454,-1.6217760025193853 L6.386678720394924,-1.4390951237892897 L6.46731581330647,-1.255926627236171 L6.54576154415615,-1.0723325770155234 L6.621989332674271,-0.8883751814759208 L6.695973350110755,-0.7041167720805562 L6.767688527986861,-0.5196197822870786 L6.837110566589289,-0.33494672639286255 L6.9042159432038215,-0.15016017835288528 L6.968981920085664,0.03467724942260314 L7.031386552163824,0.21950292728343643 L7.091408694476907,0.4042542295607658 L7.14902800933779,0.5888685557868989 L7.204224973224774,0.7732833519065961 L7.256980883396862,0.9574361314726946 L7.307277864230932,1.1412644968187773 L7.3550988732786475,1.3247061602017765 L7.40042770704106,1.50769896490733 L7.443249006458941,1.6901809063107365 L7.483548262116995,1.8720901528863814 L7.521311819160175,2.053365067158509 L7.556526881920448,2.2339442265862437 L7.589181518252424,2.4137664443757703 L7.619264663576416,2.5927707902126818 L7.646766124627511,2.770896610907364 L7.671676582909421,2.948083550946488 L7.6939875978519305,3.124271572943684 L7.713691609670871,3.2994009779823843 L7.730781941929646,3.4734124258439874 L7.745252803801455,3.6462469551144885 L7.757099292031438,3.81784600316275 L7.7663173925980695,3.9881514259836557 L7.772903982073263,4.157105517899412 L7.776856828680695,4.324651031112337 L7.778174593052023,4.490731195102413 " />
			<path d="M-47.926406871192846,14.968617986202956 L-5.5,-9.526279441628827 " />
			<path d="M-36.926406871192846,34.02117686946061 L5.5,9.526279441628827 " />

       </g>

       <!-- solid lines -->
       <g  stroke="rgb(200,200,200)" fill="none">
			<path d="M8.838834764831844,5.103103630798286 L8.836172673053337,5.352039536152405 L8.828188001262358,5.597751573015603 L8.814885559126633,5.840091733644621 L8.79627335953989,6.078914041388385 L8.772362613795208,6.314074638618856 L8.74316772483174,6.545431873385479 L8.708706278558932,6.772846384741038 L8.66899903326342,6.9961811866874655 L8.624069907105026,7.215301750691097 L8.573945963709336,7.430076086717625 L8.518657395865597,7.64037482273795 L8.458237507339705,7.8460712826570775 L8.392722692813264,8.047041562619032 L8.322152415960785,8.243164605641931 L8.246569185678254,8.43432227453817 L8.166018530477356,8.620399423075849 L8.080548971060797,8.801283965338563 L7.990211991095258,8.976866943241765 L7.895062006199555,9.147042592165029 L7.7951563311667,9.31170840466073 L7.690555145439618,9.470765192200664 L7.581321456861304,9.624117144923536 L7.46752106372124,9.771671889347232 L7.349222515120994,9.913340544011128 L7.226497069682767,10.049037773014987 L7.09941865262589,10.178681837422113 L6.968063811237037,10.3021946444958 L6.832511668760984,10.419501794739514 L6.692843876739734,10.530532626712342 L6.54914456582869,10.635220259592815 L6.401500295119479,10.73350163346541 L6.250000000000056,10.82531754730545 " />
			<path d="M-6.25,-10.825317547305483 L-6.133899074312615,-10.889903106859586 L-6.015719760293693,-10.950798770757645 L-5.895502101397533,-11.00798390533162 L-5.773286831743894,-11.061439134175906 L-5.649115362315794,-11.111146344712752 L-5.523029766927956,-11.157088694329468 L-5.395072767970664,-11.19925061608532 L-5.265287721933871,-11.23761782398617 L-5.1337186047164325,-11.272177317825095 L-5.000409996725472,-11.30291738758733 L-4.865407067770929,-11.32982761741804 L-4.728755561760367,-11.352898889151605 L-4.5905017811992765,-11.372123385401174 L-4.45069257150211,-11.387494592207483 L-4.309375305119331,-11.399007301246028 L-4.166597865485917,-11.406657611591829 L-4.0224086307967095,-11.410442931041203 L-3.8768564576141173,-11.410361976990103 L-3.7299906643137266,-11.406414776868711 L-3.581861014373445,-11.398602668132138 L-3.4325176995118336,-11.386928297807254 L-3.2820113226813112,-11.371395621595761 L-3.1303928809220363,-11.352009902533887 L-2.9777137480822597,-11.32877770920905 L-2.8240256574109783,-11.30170691353419 L-2.6693806840288405,-11.270806688080489 L-2.5138312272831973,-11.236087502969356 L-2.3574299929932963,-11.197561122324775 L-2.200229975591624,-11.15524060028719 L-2.0422844401674776,-11.109140276590292 L-1.8836469044187878,-11.059275771702179 L-1.7243711205183956,-11.005663981532598 L-1.564511056900859,-10.94832307170797 L-1.404120879975978,-10.887272471416237 L-1.2432549357752314,-10.822532866823526 L-1.0819677315373752,-10.754126194064936 L-0.9203139172394125,-10.682075631811774 L-0.7583482670791722,-10.606405593417769 L-0.5961256609158369,-10.527141718646956 L-0.43370106567463157,-10.44431086498597 L-0.2711295167220337,-10.357941098543773 L-0.10846609921778988,-10.268061684541808 L0.05423407054994249,-10.174703077397904 L0.2169158638399993,-10.077896910407194 L0.37952415813783746,-9.97767598502361 L0.5420038558330451,-9.874074259745552 L0.70429990288843,-9.767126838609506 L0.8663573074943196,-9.656869959295536 L1.0281211587017784,-9.54334098084863 L1.1895366450284799,-9.426578371020078 L1.3505490730307752,-9.306621693233229 L1.5111038858358605,-9.183511593177945 L1.67114668162762,-9.057289785038357 L1.8306232320799456,-8.927999037358596 L1.9894795007312651,-8.795683158551233 L2.1476616612940655,-8.660386982053415 L2.305116115893194,-8.52215635113565 L2.4617895132267775,-8.381038103368441 L2.6176287666435765,-8.237080054752017 L2.7725810721306776,-8.090330983514528 L2.92659392620543,-7.9408406135842 L3.0796151437055257,-7.788659597741052 L3.231592875471219,-7.63383950045392 L3.3824756259137274,-7.4764327804085084 L3.5322122704638104,-7.3164927727324915 L3.6807520728946264,-7.154073670923619 L3.8280447025130244,-6.989230508486997 L3.9740402512134025,-6.822019140287734 L4.118689250388407,-6.652496223625261 L4.261942687690694,-6.480719199035783 L4.403752023640078,-6.3067462708293585 L4.544069208070494,-6.130636387368132 L4.682846696411137,-5.952449221092489 L4.820037465796302,-5.7722451483018675 L4.955595030998428,-5.5900852286970615 L5.089473460178998,-5.406031184690976 L5.221627390451912,-5.220145380494824 L5.352012043254087,-5.0324908009868645 L5.480583239518062,-4.843131030370827 L5.607297414641473,-4.652130230631285 L5.732111633248338,-4.459553119793205 L5.8549836037371215,-4.265464949993145 L5.975871692610647,-4.069931485369472 L6.09473493858307,-3.8730189797790544 L6.211533066459037,-3.674794154348044 L6.3262265007804,-3.4753241748643373 L6.438776379235809,-3.274676629019356 L6.549144565828688,-3.0729195035068804 L6.657293663799098,-2.8701211609866784 L6.763187028295112,-2.666350316920749 L6.866788778789439,-2.4616760162900224 L6.9680638112370366,-2.2561676101994177 L7.066977809969659,-2.04989473237913 L7.163497259323243,-1.8429272755902106 L7.257589454994233,-1.6353353679423746 L7.349222515120989,-1.4271893491320125 L7.438365391086534,-1.2185597466085496 L7.524987878038944,-1.009517251677183 L7.609060625125858,-0.8001326955460863 L7.690555145439614,-0.590477025326226 L7.769443825669647,-0.3806212799918893 L7.845699935458888,-0.1706365663100967 L7.919297636460982,0.03940596525295845 L7.990211991095254,0.24943514464026847 L8.058418970996483,0.4593798063190524 L8.12389546515658,0.6691688133942033 L8.186619287755425,0.8787310817120411 L8.24656918567825,1.0879956039462433 L8.303724845716967,1.2968914736577013 L8.35806690145301,1.5053479093202005 L8.409576939819386,1.7132942783037841 L8.458237507339705,1.920660120807655 L8.504032116042039,2.1273751737345235 L8.546945249045653,2.3333693944983063 L8.586962365818689,2.5385729847570944 L8.624069907105026,2.7429164140633753 L8.658255299518654,2.946330443423502 L8.689506959803989,3.148746148758368 L8.717814298760706,3.350094944257373 L8.74316772483174,3.5503086056178232 L8.765558647353261,3.7493192931618 L8.784979479465505,3.9470595748227124 L8.80142364068347,4.143462448993737 L8.814885559126633,4.338461367230398 L8.825360673406898,4.5319902567996095 L8.832845434174162,4.723983543067514 L8.837337305318972,4.914376171718565 L8.838834764831844,5.103103630798197 " />
			<path d="M-33.587572106361,29.598001058630068 L-33.59023419813951,29.846936963984184 L-33.59821886993049,30.092649000847384 L-33.611521312066216,30.3349891614764 L-33.63013351165296,30.573811469220168 L-33.654044257397636,30.808972066450636 L-33.6832391463611,31.04032930121726 L-33.71770059263392,31.267743812572817 L-33.75740783792943,31.491078614519246 L-33.80233696408782,31.710199178522878 L-33.85246090748351,31.924973514549407 L-33.90774947532725,32.13527225056973 L-33.96816936385314,32.34096871048886 L-34.03368417837958,32.54193899045082 L-34.10425445523206,32.73806203347371 L-34.17983768551459,32.92921970236995 L-34.260388340715494,33.115296850907626 L-34.345857900132046,33.29618139317034 L-34.43619488009759,33.47176437107355 L-34.531344864993294,33.64194001999681 L-34.631250540026144,33.80660583249251 L-34.73585172575323,33.96566262003245 L-34.84508541433154,34.11901457275532 L-34.9588858074716,34.26656931717901 L-35.077184356071854,34.40823797184291 L-35.19990980151008,34.54393520084677 L-35.32698821856695,34.67357926525389 L-35.45834305995581,34.79709207232758 L-35.59389520243186,34.91439922257129 L-35.73356299445311,35.025430054544124 L-35.877262305364155,35.130117687424594 L-36.02490657607337,35.22839906129719 L-36.17640687119279,35.32021497513723 " />
			<path d="M-36.176406871192846,35.32021497513726 L-36.33167193260977,35.40551012247154 L-36.490608234456886,35.48423312469264 L-36.65312003944896,35.55633656200769 L-36.819109456551374,35.62177700200216 L-36.98847649994601,35.680515025801974 L-37.16111914925898,35.73251525181795 L-37.336933411013845,35.777746357058355 L-37.51581338127346,35.81618109599669 L-37.69765130943248,35.847796316983384 L-37.88233766312235,35.87257297619149 L-38.06976119418946,35.89049614908795 L-38.259809005706934,35.901555039423606 L-38.45236661997944,35.905742985736445 L-38.64731804750034,35.9030574653642 L-38.84454585681941,35.893500095963915 L-39.04393124527912,35.877076634537566 L-39.24535411057697,35.85379697396419 L-39.44869312311059,35.82367513704083 L-39.65382579906217,35.78672926803573 L-39.860628574178115,35.74298162175887 L-40.06897687819955,35.69245855015656 L-40.27874520989879,35.63519048643793 L-40.48980721267654,35.57121192674319 L-40.702035750674455,35.50056140936438 L-40.91530298535698,35.42328149153137 L-41.129480452516525,35.339418723777 L-41.34443913965548,35.24902362189671 L-41.56004956369853,35.152150636519806 L-41.77618184898842,35.04885812031035 L-41.99270580551822,34.93920829281775 L-42.209491007352845,34.823267202998025 L-42.426406871192846,34.701104689428355 L-42.64332273503285,34.57279433823897 L-42.86010793686748,34.4384134387876 L-43.07663189339727,34.29804293710324 L-43.29276417868717,34.151767387127315 L-43.50837460273022,33.99967489978153 L-43.72333328986917,33.841857089893175 L-43.93751075702871,33.67840902100972 L-44.15077799171124,33.50942914813616 L-44.36300652970916,33.33501925842933 L-44.57406853248691,33.1552844098852 L-44.78383686418614,32.9703328680558 L-44.99218516820758,32.78027604083416 L-45.19898794332352,32.58522841134631 L-45.404120619275105,32.385307468990945 L-45.60745963180873,32.180633638668226 L-45.80888249710658,31.971330208240285 L-46.00826788556629,31.757523254267255 L-46.20549569488535,31.53934156606345 L-46.400447122406256,31.316916568119506 L-46.593004736678765,31.09038224093718 L-46.78305254819623,30.859875040324503 L-46.97047607926335,30.6255338151999 L-47.15516243295321,30.38749972395481 L-47.33700036111224,30.145916149425126 L-47.51588033137185,29.90092861252275 L-47.69169459312672,29.65268468457925 L-47.86433724243968,29.401333898454368 L-48.033704285834325,29.14702765846306 L-48.199693702936734,28.889919149175174 L-48.36220550792881,28.630163243142796 L-48.521141809775926,28.367916407610824 L-48.676406871192846,28.103336610266943 L-48.82790716631233,27.836583224087793 L-48.97555143702154,27.56781693133866 L-49.11925074793258,27.29719962678447 L-49.25891853995383,27.024894320170464 L-49.39447068242988,26.751065038031193 L-49.52582552381874,26.475876724887076 L-49.65290394087561,26.199495143888 L-49.77562938631384,25.922086776963784 L-49.89392793491409,25.6438187245417 L-50.00772832805414,25.36485860489141 L-50.11696201663246,25.085374453158003 L-50.22156320235954,24.805534620143902 L-50.3214688773924,24.525507670900623 L-50.416618862288104,24.245462283191507 L-50.50695584225364,23.965567145886542 L-50.5924254016702,23.68599085735049 L-50.6729760568711,23.406901823885526 L-50.74855928715363,23.128468158289607 L-50.81912956400611,22.85085757859158 L-50.88464437853255,22.574237307024124 L-50.94506426705844,22.298773969295336 L-51.00035283490218,22.024633494219625 L-51.05047677829788,21.751981013768404 L-51.09540590445627,21.480980763600765 L-51.135113149751774,21.211795984134053 L-51.16957459602459,20.944588822213955 L-51.19876948498805,20.679520233443295 L-51.222680230732735,20.416749885228384 L-51.241292430319476,20.15643606060138 L-51.25459487245521,19.89873556287648 L-51.26257954424618,19.64380362119747 L-51.26524163602469,19.391793797033493 L-51.26257954424618,19.142857891679377 L-51.25459487245521,18.897145854816188 L-51.241292430319476,18.654805694187168 L-51.222680230732735,18.415983386443397 L-51.198769484988055,18.180822789212925 L-51.16957459602459,17.9494655544463 L-51.135113149751774,17.722051043090744 L-51.09540590445627,17.498716241144315 L-51.05047677829787,17.279595677140684 L-51.00035283490218,17.064821341114154 L-50.94506426705844,16.854522605093827 L-50.88464437853255,16.648826145174702 L-50.81912956400611,16.447855865212745 L-50.74855928715363,16.25173282218985 L-50.6729760568711,16.06057515329361 L-50.5924254016702,15.874498004755926 L-50.50695584225364,15.693613462493209 L-50.416618862288104,15.51803048459001 L-50.3214688773924,15.347854835666745 L-50.22156320235954,15.183189023171046 L-50.116962016632456,15.02413223563111 L-50.00772832805414,14.870780282908237 L-49.89392793491409,14.723225538484547 L-49.77562938631384,14.581556883820651 L-49.65290394087561,14.445859654816791 L-49.52582552381874,14.316215590409671 L-49.39447068242989,14.192702783335983 L-49.25891853995383,14.075395633092269 L-49.11925074793258,13.964364801119439 L-48.97555143702154,13.859677168238965 L-48.82790716631232,13.76139579436637 L-48.676406871192874,13.669579880526314 " />
			<path d="M-48.676406871192846,13.669579880526298 L-48.56030594550546,13.604994320972194 L-48.44212663148654,13.544098657074136 L-48.32190897259038,13.48691352250016 L-48.19969370293674,13.433458293655875 L-48.07552223350864,13.383751083119028 L-47.9494366381208,13.337808733502312 L-47.82147963916351,13.29564681174646 L-47.69169459312672,13.25727960384561 L-47.56012547590928,13.222720110006685 L-47.42681686791832,13.19198004024445 L-47.29181393896378,13.16506981041374 L-47.15516243295321,13.141998538680175 L-47.016908652392125,13.122774042430606 L-46.877099442694956,13.107402835624297 L-46.73578217631218,13.095890126585752 L-46.593004736678765,13.088239816239952 L-46.44881550198956,13.084454496790578 L-46.30326332880696,13.084535450841678 L-46.15639753550657,13.08848265096307 L-46.00826788556629,13.096294759699642 L-45.85892457070468,13.107969130024527 L-45.70841819387416,13.12350180623602 L-45.556799752114884,13.142887525297894 L-45.404120619275105,13.166119718622731 L-45.250432528603824,13.19319051429759 L-45.09578755522168,13.224090739751292 L-44.940238098476044,13.258809924862424 L-44.78383686418614,13.297336305507006 L-44.62663684678447,13.33965682754459 L-44.468691311360324,13.385757151241489 L-44.310053775611635,13.435621656129602 L-44.150777991711244,13.489233446299183 L-43.99091792809371,13.546574356123811 L-43.83052775116882,13.607624956415544 L-43.66966180696808,13.672364561008255 L-43.50837460273022,13.740771233766845 L-43.34672078843226,13.812821796020007 L-43.18475513827202,13.888491834414012 L-43.022532532108684,13.967755709184825 L-42.86010793686748,14.05058656284581 L-42.69753638791488,14.136956329288008 L-42.53487297041064,14.226835743289973 L-42.3721728006429,14.320194350433876 L-42.209491007352845,14.417000517424587 L-42.046882713055005,14.51722144280817 L-41.8844030153598,14.620823168086229 L-41.722106968304416,14.727770589222274 L-41.56004956369853,14.838027468536245 L-41.39828571249107,14.951556446983151 L-41.23687022616436,15.068319056811703 L-41.07585779816207,15.188275734598552 L-40.91530298535699,15.311385834653835 L-40.75526018956523,15.437607642793424 L-40.5957836391129,15.566898390473185 L-40.43692737046158,15.699214269280548 L-40.27874520989878,15.834510445778365 L-40.121290755299654,15.972741076696131 L-39.96461735796607,16.11385932446334 L-39.80877810454927,16.257817373079764 L-39.65382579906217,16.404566444317254 L-39.49981294498742,16.55405681424758 L-39.34679172748732,16.70623783009073 L-39.194813995721624,16.86105792737786 L-39.04393124527912,17.018464647423272 L-38.89419460072904,17.17840465509929 L-38.74565479829822,17.34082375690816 L-38.59836216867982,17.505666919344783 L-38.45236661997944,17.672878287544044 L-38.30771762080444,17.84240120420652 L-38.164464183502155,18.014178228796 L-38.022654847552765,18.188151157002423 L-37.88233766312235,18.36426104046365 L-37.743560174781706,18.54244820673929 L-37.60636940539654,18.722652279529914 L-37.470811840194415,18.904812199134717 L-37.336933411013845,19.088866243140806 L-37.20477948074093,19.274752047336957 L-37.07439482793876,19.462406626844917 L-36.945823631674784,19.651766397460953 L-36.819109456551374,19.842767197200494 L-36.69429523794451,20.035344308038574 L-36.57142326745573,20.229432477838635 L-36.4505351785822,20.424965942462308 L-36.33167193260978,20.621878448052726 L-36.21487380473381,20.82010327348374 L-36.100180370412446,21.019573252967444 L-35.987630491957034,21.220220798812424 L-35.877262305364155,21.4219779243249 L-35.76911320739375,21.624776266845103 L-35.66321984289773,21.828547110911032 L-35.559618092403404,22.03322141154176 L-35.45834305995581,22.23872981763236 L-35.35942906122319,22.44500269545265 L-35.2629096118696,22.65197015224157 L-35.168817416198614,22.859562059889406 L-35.077184356071854,23.067708078699766 L-34.98804148010631,23.276337681223232 L-34.901418993153904,23.485380176154596 L-34.81734624606699,23.694764732285694 L-34.735851725753236,23.904420402505554 L-34.6569630455232,24.11427614783989 L-34.58070693573396,24.324260861521683 L-34.507109234731864,24.534303393084738 L-34.43619488009759,24.74433257247205 L-34.36798790019636,24.954277234150833 L-34.30251140603627,25.164066241225985 L-34.23978758343742,25.37362850954382 L-34.1798376855146,25.582893031778024 L-34.12268202547588,25.791788901489483 L-34.06833996973984,26.00024533715198 L-34.01682993137346,26.208191706135565 L-33.96816936385314,26.415557548639434 L-33.922374755150805,26.622272601566305 L-33.87946162214719,26.828266822330086 L-33.83944450537416,27.033470412588876 L-33.80233696408782,27.237813841895157 L-33.768151571674196,27.441227871255283 L-33.73689991138886,27.643643576590147 L-33.70859257243214,27.844992372089152 L-33.6832391463611,28.045206033449603 L-33.66084822383959,28.24421672099358 L-33.64142739172734,28.441957002654494 L-33.62498323050937,28.63835987682552 L-33.611521312066216,28.83335879506218 L-33.60104619778595,29.02688768463139 L-33.593561437018685,29.218880970899296 L-33.58906956587387,29.409273599550346 L-33.587572106361,29.598001058629976 " />
			<path d="M-34.648232278140824,28.98562862293427 L-34.65057491890591,29.204692219645896 L-34.65760143008197,29.42091881208551 L-34.66930757916141,29.63417815343905 L-34.68568631479774,29.844341784253558 L-34.70672777105307,30.051283109816374 L-34.732419273340916,30.254877476411 L-34.76274534606099,30.455002246403893 L-34.79768772192104,30.65153687211675 L-34.83722535294042,30.844362968439945 L-34.88133442312863,31.03336438414329 L-34.92998836283112,31.21842727184118 L-34.983157864733904,31.39944015657001 L-35.040810901517176,31.576294002936528 L-35.10291274514736,31.748882280796682 L-35.16942598779598,31.917101029425368 L-35.24031056437278,32.08084892013853 L-35.31552377665935,32.24002731732972 L-35.395020319029015,32.394540337884536 L-35.47875230573724,32.544294908937005 L-35.56666929976615,32.68920082393322 L-35.65871834320598,32.82917079696836 L-35.7548439891549,32.96412051536449 L-35.85498833511815,33.093968690457345 L-35.95909105788637,33.21863710656157 L-36.06708944987201,33.33805066808497 L-36.17891845688206,33.45213744476324 L-36.294510717304256,33.560828714988084 L-36.41379660268318,33.66405900720255 L-36.53670425966188,33.76176613933864 L-36.6631596532636,33.85389125627346 L-36.7930866114877,33.940378865281346 L-36.926406871192796,34.021176869460575 " />
			<path d="M-36.926406871192846,34.021176869460604 L-37.06304012523974,34.09623659911477 L-37.202904070865195,34.165512841069344 L-37.345914459258225,34.22896386590658 L-37.491985146308345,34.28655145310171 L-37.641028144495635,34.33824091404555 L-37.79295367589104,34.38400111293961 L-37.94767022623533,34.423804485551166 L-38.10508460006378,34.4576270558169 L-38.265101976843724,34.48544845028519 L-38.42762596809081,34.50725191038832 L-38.59255867542987,34.52302430253721 L-38.759800749565244,34.53275612603259 L-38.92925145012505,34.53644151878788 L-39.10080870634344,34.534078260860305 L-39.27436917854422,34.525667775788065 L-39.44982832038876,34.511215129732875 L-39.62708044185087,34.4907290284283 L-39.80601877288046,34.464221811935744 L-39.98653552771785,34.431709447211254 L-40.168521969819885,34.39321151848762 L-40.35186847735875,34.348751215477584 L-40.53646460925407,34.29835531940519 L-40.72219917169849,34.242054186873816 L-40.90896028513666,34.179881731580465 L-41.096635451657285,34.111875403887424 L-41.28511162275768,34.03807616826357 L-41.474275267439964,33.958528478608926 L-41.664012440597844,33.87328025147724 L-41.854208851652956,33.78238283721292 L-42.044749933399174,33.685890989019434 L-42.235520911013644,33.583862829978074 L-42.426406871192846,33.47635981803677 L-42.61729283137205,33.36344670899011 L-42.80806380898652,33.245191517472904 L-42.99860489073274,33.12166547599067 L-43.18880130178785,32.99294299201185 L-43.378538474945735,32.859101603147565 L-43.56770211962801,32.7202219304458 L-43.75617829072841,32.57638762982837 L-43.943853457249034,32.42768534169963 L-44.1306145706872,32.274204638757624 L-44.316349133131624,32.11603797203878 L-44.50094526502695,31.95328061522892 L-44.684291772565814,31.786030607273876 L-44.866278214667844,31.614388693324564 L-45.046794969505235,31.438458264051846 L-45.22573330053482,31.258345293367853 L-45.40298542199693,31.074158274591266 L-45.57844456384147,30.886008155095 L-45.75200503604225,30.69400826947565 L-45.92356229226065,30.498274271284977 L-46.093012992820455,30.29892406336453 L-46.26025506695582,30.096077726825378 L-46.42518777429488,29.889857448715727 L-46.58771176554197,29.68038744842005 L-46.74772914232191,29.467793902833925 L-46.90514351615037,29.252204870359833 L-47.05986006649465,29.03375021376955 L-47.211785597890064,28.812561521979656 L-47.36082859607735,28.588772030787307 L-47.50689928312747,28.362516542613967 L-47.6499096715205,28.133931345305477 L-47.789773617145954,27.90315413003734 L-47.926406871192846,27.670323908374723 L-48.05972713089799,27.43558092853707 L-48.189654089122094,27.199066590917834 L-48.31610948272382,26.960923362910147 L-48.439017139702514,26.721294693089824 L-48.55830302508144,26.480324924807263 L-48.67389528550363,26.23815920924044 L-48.78572429251368,25.994943417961252 L-48.893722684499316,25.750824055067945 L-48.99782540726754,25.50594816893651 L-49.09796975323079,25.260463263644255 L-49.19409539917971,25.014517210118857 L-49.28614444261954,24.768258157066448 L-49.374061436648454,24.521834441732363 L-49.45779342335667,24.27539450054834 L-49.537289965726345,24.02908677971997 L-49.612503178012915,23.783059645808244 L-49.68338775458971,23.537461296359076 L-49.749900997238335,23.292439670634668 L-49.812002840868516,23.048142360500403 L-49.86965587765179,22.804716521521044 L-49.922825379554574,22.56230878431971 L-49.971479319257064,22.321065166253085 L-50.01558838944527,22.08113098345601 L-50.055126020464655,21.842650763308487 L-50.0900683963247,21.60576815737778 L-50.120394469044776,21.370625854888097 L-50.146085971332624,21.137365496769913 L-50.16712742758795,20.90612759034079 L-50.18350616322429,20.677051424669028 L-50.195212312303724,20.45027498667112 L-50.20223882347978,20.225934877993588 L-50.20458146424487,20.00416623272929 L-50.20223882347978,19.785102636017662 L-50.195212312303724,19.568876043578058 L-50.18350616322429,19.355616702224523 L-50.16712742758795,19.145453071410003 L-50.146085971332624,18.938511745847187 L-50.120394469044776,18.734917379252558 L-50.0900683963247,18.534792609259668 L-50.055126020464655,18.33825798354681 L-50.01558838944527,18.145431887223612 L-49.971479319257064,17.95643047152027 L-49.922825379554574,17.771367583822382 L-49.86965587765179,17.590354699093552 L-49.812002840868516,17.41350085272703 L-49.749900997238335,17.24091257486688 L-49.68338775458971,17.07269382623819 L-49.612503178012915,16.90894593552503 L-49.537289965726345,16.74976753833384 L-49.45779342335667,16.595254517779022 L-49.37406143664845,16.44549994672655 L-49.28614444261954,16.300594031730334 L-49.19409539917971,16.16062405869519 L-49.09796975323079,16.025674340299062 L-48.99782540726754,15.895826165206214 L-48.89372268449932,15.771157749101988 L-48.78572429251368,15.65174418757859 L-48.67389528550363,15.537657410900325 L-48.55830302508144,15.42896614067548 L-48.439017139702514,15.325735848461012 L-48.31610948272381,15.22802871632492 L-48.189654089122094,15.135903599390103 L-48.05972713089798,15.049415990382219 L-47.92640687119287,14.96861798620297 " />
			<path d="M-47.926406871192846,14.968617986202956 L-47.824238056587944,14.911782693795345 L-47.720240260251295,14.858194509565054 L-47.61444872042267,14.807871591139955 L-47.506899283127474,14.760830989756982 L-47.39762839003075,14.717088644484559 L-47.28667306608945,14.676659376821847 L-47.17407090700703,14.639556885676699 L-47.05986006649465,14.60579374272395 L-46.9440792433433,14.575381388145697 L-46.82676766831126,14.548330126754932 L-46.707965090831266,14.524649124503906 L-46.58771176554197,14.504346405378367 L-46.46604843864821,14.487428848678748 L-46.3430163341147,14.473902186689195 L-46.218657139697854,14.463771002735276 L-46.093012992820455,14.457038729630971 L-45.96612646629395,14.453707648515524 L-45.83804055389327,14.453778888080489 L-45.708798655788925,14.457252424187313 L-45.57844456384148,14.464127079875498 L-45.447022446763256,14.474400525761398 L-45.3145768351524,14.48806928082751 L-45.18115260640424,14.50512871360196 L-45.046794969505235,14.525573043727817 L-44.91154944971451,14.549395343921693 L-44.77546187313823,14.57658754232095 L-44.63857835120206,14.607140425218747 L-44.50094526502695,14.641043640185979 L-44.36260924971347,14.678285699579051 L-44.22361717854022,14.718853984432323 L-44.08401614708138,14.762734748733862 L-43.943853457249034,14.809913124083096 L-43.803176601265605,14.860373124728767 L-43.662033245571706,14.914097652985491 L-43.52047121467505,14.971068505027077 L-43.378538474945735,15.031266377054637 L-43.23628311836353,15.09467087183742 L-43.09375334622252,15.161260505624144 L-42.95099745279878,15.231012715422459 L-42.808063808986525,15.303903866644125 L-42.66500084590824,15.37990926111326 L-42.5218570385045,15.45900314543499 L-42.3786808891089,15.541158719721626 L-42.235520911013644,15.626348146673449 L-42.09242561203155,15.714542561011005 L-41.94944347805976,15.805712079255697 L-41.806622956651026,15.899825809855415 L-41.664012440597844,15.99685186365171 L-41.52166025153528,16.096757364684986 L-41.37961462356778,16.199508461334112 L-41.23792368692576,16.30507033778654 L-41.09663545165729,16.413407225835186 L-40.95579779136054,16.524482416998026 L-40.81545842696249,16.63825827495622 L-40.67566491054933,16.754696248306693 L-40.53646460925407,16.873756883624775 L-40.39790468920683,16.99539983883241 L-40.26003209955328,17.119583896867553 L-40.1228935565465,17.246266979650006 L-39.98653552771785,17.375406162338994 L-39.85100421613207,17.506957687877684 L-39.71634554473198,17.640876981819655 L-39.58260514077817,17.77711866743233 L-39.44982832038877,17.91563658107229 L-39.3180600731847,18.056383787827187 L-39.187345047045575,18.199312597418995 L-39.05772753298138,18.344374580363223 L-38.92925145012505,18.491520584378573 L-38.801960330851045,18.64070075104155 L-38.675897306025036,18.791864532680293 L-38.551105090389576,18.944960709501945 L-38.42762596809081,19.099937406947824 L-38.305501778351044,19.25674211327039 L-38.184773901292104,19.415321697326135 L-38.06548324391423,19.575622426578366 L-37.94767022623533,19.73758998530372 L-37.831374767595165,19.901169492996335 L-37.71663627312925,20.06630552296334 L-37.60349362041695,20.232942121105452 L-37.49198514630835,20.40102282487625 L-37.38214863393431,20.57049068241376 L-37.27402129990418,20.741288271837814 L-37.16763978169548,20.913357720706646 L-37.063040125239745,21.08664072562621 L-36.96025777270889,21.261078572005502 L-36.859327550506094,21.436612153951163 L-36.76028365746534,21.61318199429475 L-36.6631596532636,21.790728264745724 L-36.56798844704964,21.969190806163503 L-36.47480228629315,22.14850914894152 L-36.38363274585814,22.32862253349656 L-36.294510717304256,22.509469930856294 L-36.20746639841955,22.690990063338145 L-36.122529282988395,22.873121425312394 L-36.03972815079792,23.05580230404249 L-35.959091057886376,23.23897080059561 L-35.880645327036696,23.422564850816258 L-35.80441753851858,23.60652224635586 L-35.73043352108209,23.790780655751224 L-35.65871834320598,23.9752776455447 L-35.58929630460356,24.15995070143892 L-35.52219092798902,24.344737249478897 L-35.457424951107186,24.529574677254384 L-35.39502031902902,24.714400355115217 L-35.33499817671594,24.899151657392547 L-35.277378861855055,25.08376598361868 L-35.22218189796807,25.268180779738376 L-35.16942598779598,25.452333559304474 L-35.11912900696191,25.63616192465056 L-35.0713079979142,25.81960358803356 L-35.025979164151785,26.00259639273911 L-34.983157864733904,26.185078334142517 L-34.94285860907585,26.366987580718163 L-34.90509505203267,26.54826249499029 L-34.8698799892724,26.728841654418023 L-34.83722535294042,26.90866387220755 L-34.80714220761643,27.087668218044463 L-34.779640746565335,27.265794038739145 L-34.754730288283426,27.44298097877827 L-34.732419273340916,27.619169000775464 L-34.71271526152198,27.794298405814164 L-34.695624929263204,27.96830985367577 L-34.68115406739139,28.14114438294627 L-34.669307579161405,28.31274343099453 L-34.66008947859478,28.483048853815436 L-34.65350288911958,28.65200294573119 L-34.64955004251215,28.81954845894412 L-34.648232278140824,28.985628622934193 " />
			<path d="M-48.676406871192846,13.669579880526298 L-6.25,-10.825317547305485 " />
			<path d="M-36.176406871192846,35.32021497513727 L6.25,10.825317547305485 " />

       </g>
    </g>
    
</svg>
