<?xml version="1.0" encoding="UTF-8" standalone="no"?>
<svg
   xmlns:svg="http://www.w3.org/2000/svg"
   xmlns="http://www.w3.org/2000/svg"
   viewBox="185.00 13.75 330.00 137.50"

>
    <g transform="scale(4.999999983333334, -4.999999983333334)   translate(100.00000023333334,-16.500000113333346)" stroke-width="0.5"  fill="none">
       <!-- hidden lines -->
       <g  stroke="rgb(80,80,80)" fill="none" stroke-dasharray="0.5,0.5" >
			<path d="M0.0,12.5 L0.0,12.186598902272795 L0.0,11.262110848780239 L0.0,9.772893530850373 L0.0,7.79362252323417 L0.0,5.423546738969478 L0.0,2.7815116744539305 L0.0,7.654042494670958e-16 L0.0,-2.781511674453929 L0.0,-5.423546738969476 L0.0,-7.793622523234169 L0.0,-9.772893530850371 L0.0,-11.262110848780239 L0.0,-12.186598902272795 L0.0,-12.499999999999995 " />
			<path d="M-60.0,12.5 L-60.0,12.186598902272795 L-60.0,11.262110848780239 L-60.0,9.772893530850373 L-60.0,7.79362252323417 L-60.0,5.423546738969478 L-60.0,2.7815116744539305 L-60.0,7.654042494670958e-16 L-60.0,-2.781511674453929 L-60.0,-5.423546738969476 L-60.0,-7.793622523234169 L-60.0,-9.772893530850371 L-60.0,-11.262110848780239 L-60.0,-12.186598902272795 L-60.0,-12.499999999999995 " />
			<path d="M0.0,11.0 L0.0,10.72420703400006 L0.0,9.910657546926611 L0.0,8.600146307148329 L0.0,6.85838782044607 L0.0,4.77272113029314 L0.0,2.447730273519459 L0.0,6.735557395310443e-16 L0.0,-2.4477302735194577 L0.0,-4.772721130293139 L0.0,-6.858387820446068 L0.0,-8.600146307148327 L0.0,-9.91065754692661 L0.0,-10.72420703400006 L0.0,-10.999999999999995 " />
			<path d="M0.0,-11.0 L0.0,-10.72420703400006 L0.0,-9.910657546926611 L0.0,-8.600146307148329 L0.0,-6.85838782044607 L0.0,-4.772721130293141 L0.0,-2.4477302735194604 L0.0,-2.0206672185931327e-15 L0.0,2.4477302735194564 L0.0,4.772721130293138 L0.0,6.858387820446067 L0.0,8.600146307148327 L0.0,9.91065754692661 L0.0,10.72420703400006 L0.0,10.99999999999999 " />
			<path d="M-60.0,11.0 L-60.0,10.72420703400006 L-60.0,9.910657546926611 L-60.0,8.600146307148329 L-60.0,6.85838782044607 L-60.0,4.77272113029314 L-60.0,2.447730273519459 L-60.0,6.735557395310443e-16 L-60.0,-2.4477302735194577 L-60.0,-4.772721130293139 L-60.0,-6.858387820446068 L-60.0,-8.600146307148327 L-60.0,-9.91065754692661 L-60.0,-10.72420703400006 L-60.0,-10.999999999999995 " />
			<path d="M-60.0,-11.0 L-60.0,-10.72420703400006 L-60.0,-9.910657546926611 L-60.0,-8.600146307148329 L-60.0,-6.85838782044607 L-60.0,-4.772721130293141 L-60.0,-2.4477302735194604 L-60.0,-2.0206672185931327e-15 L-60.0,2.4477302735194564 L-60.0,4.772721130293138 L-60.0,6.858387820446067 L-60.0,8.600146307148327 L-60.0,9.91065754692661 L-60.0,10.72420703400006 L-60.0,10.99999999999999 " />
			<path d="M0.0,11.0 L-60.0,11.0 " />
			<path d="M-60.0,-11.0 L0.0,-11.0 " />

       </g>

       <!-- solid lines -->
       <g  stroke="rgb(200,200,200)" fill="none">
			<path d="M0.0,12.5 L-60.0,12.5 " />
			<path d="M0.0,-12.5 L0.0,-12.186598902272795 L0.0,-11.262110848780239 L0.0,-9.772893530850373 L0.0,-7.79362252323417 L0.0,-5.4235467389694785 L0.0,-2.7815116744539323 L0.0,-2.296212748401287e-15 L0.0,2.781511674453928 L0.0,5.423546738969474 L0.0,7.793622523234167 L0.0,9.772893530850371 L0.0,11.262110848780239 L0.0,12.186598902272793 L0.0,12.499999999999988 " />
			<path d="M-60.0,-12.5 L-60.0,-12.186598902272795 L-60.0,-11.262110848780239 L-60.0,-9.772893530850373 L-60.0,-7.79362252323417 L-60.0,-5.4235467389694785 L-60.0,-2.7815116744539323 L-60.0,-2.296212748401287e-15 L-60.0,2.781511674453928 L-60.0,5.423546738969474 L-60.0,7.793622523234167 L-60.0,9.772893530850371 L-60.0,11.262110848780239 L-60.0,12.186598902272793 L-60.0,12.499999999999988 " />
			<path d="M-60.0,-12.5 L0.0,-12.5 " />

       </g>
    </g>
    
</svg>
