<?xml version="1.0" encoding="UTF-8" standalone="no"?>
<svg
   xmlns:svg="http://www.w3.org/2000/svg"
   xmlns="http://www.w3.org/2000/svg"
   viewBox="195.95 8.75 89.10 247.50"

>
    <g transform="scale(8.999999927999996, -8.999999927999996)   translate(31.222222500000008,-14.722222340000014)" stroke-width="0.5"  fill="none">
       <!-- hidden lines -->
       <g  stroke="rgb(80,80,80)" fill="none" stroke-dasharray="0.5,0.5" >
			<path d="M0.0,12.5 L0.0,12.186598902272795 L0.0,11.262110848780239 L0.0,9.772893530850373 L0.0,7.79362252323417 L0.0,5.423546738969478 L0.0,2.7815116744539305 L0.0,7.654042494670958e-16 L0.0,-2.781511674453929 L0.0,-5.423546738969476 L0.0,-7.793622523234169 L0.0,-9.772893530850371 L0.0,-11.262110848780239 L0.0,-12.186598902272795 L0.0,-12.499999999999995 " />
			<path d="M-5.0,12.5 L-5.0,12.186598902272795 L-5.0,11.262110848780239 L-5.0,9.772893530850373 L-5.0,7.79362252323417 L-5.0,5.423546738969478 L-5.0,2.7815116744539305 L-5.0,7.654042494670958e-16 L-5.0,-2.781511674453929 L-5.0,-5.423546738969476 L-5.0,-7.793622523234169 L-5.0,-9.772893530850371 L-5.0,-11.262110848780239 L-5.0,-12.186598902272795 L-5.0,-12.499999999999995 " />
			<path d="M0.0,8.5 L0.0,8.286887253545501 L0.0,7.658235377170563 L0.0,6.645567600978254 L0.0,5.299663315799235 L0.0,3.6880117824992444 L0.0,1.8914279386286728 L0.0,5.204748896376251e-16 L0.0,-1.8914279386286719 L0.0,-3.6880117824992436 L0.0,-5.2996633157992346 L0.0,-6.645567600978253 L0.0,-7.658235377170562 L0.0,-8.286887253545501 L0.0,-8.499999999999996 " />
			<path d="M0.0,-8.5 L0.0,-8.286887253545501 L0.0,-7.658235377170563 L0.0,-6.6455676009782545 L0.0,-5.299663315799235 L0.0,-3.6880117824992453 L0.0,-1.891427938628674 L0.0,-1.5614246689128753e-15 L0.0,1.891427938628671 L0.0,3.6880117824992427 L0.0,5.299663315799234 L0.0,6.645567600978253 L0.0,7.658235377170562 L0.0,8.2868872535455 L0.0,8.499999999999991 " />
			<path d="M-5.000000000000001,10.7 L-5.000000000000001,10.431728660345511 L-5.000000000000001,9.640366886555885 L-5.000000000000001,8.365596862407918 L-5.000000000000001,6.671340879888449 L-5.000000000000001,4.6425560085578725 L-5.000000000000001,2.3809739933325647 L-5.000000000000001,6.55186037543834e-16 L-5.000000000000001,-2.3809739933325633 L-5.000000000000001,-4.642556008557871 L-5.000000000000001,-6.671340879888448 L-5.000000000000001,-8.365596862407918 L-5.000000000000001,-9.640366886555883 L-5.000000000000001,-10.431728660345511 L-5.000000000000001,-10.699999999999994 " />
			<path d="M-5.000000000000001,-10.7 L-5.000000000000001,-10.431728660345511 L-5.000000000000001,-9.640366886555885 L-5.000000000000001,-8.36559686240792 L-5.000000000000001,-6.671340879888449 L-5.000000000000001,-4.642556008557873 L-5.000000000000001,-2.380973993332566 L-5.000000000000001,-1.965558112631502e-15 L-5.000000000000001,2.380973993332562 L-5.000000000000001,4.64255600855787 L-5.000000000000001,6.671340879888446 L-5.000000000000001,8.365596862407918 L-5.000000000000001,9.640366886555883 L-5.000000000000001,10.431728660345511 L-5.000000000000001,10.699999999999989 " />
			<path d="M0.0,8.5 L-1.5,8.5 " />
			<path d="M-1.5,8.5 L-1.5,8.286887253545501 L-1.5,7.658235377170563 L-1.5,6.645567600978254 L-1.5,5.299663315799235 L-1.5,3.6880117824992444 L-1.5,1.8914279386286728 L-1.5,5.204748896376251e-16 L-1.5,-1.8914279386286719 L-1.5,-3.6880117824992436 L-1.5,-5.2996633157992346 L-1.5,-6.645567600978253 L-1.5,-7.658235377170562 L-1.5,-8.286887253545501 L-1.5,-8.499999999999996 " />
			<path d="M-1.5,-8.5 L-1.5,-8.286887253545501 L-1.5,-7.658235377170563 L-1.5,-6.6455676009782545 L-1.5,-5.299663315799235 L-1.5,-3.6880117824992453 L-1.5,-1.891427938628674 L-1.5,-1.5614246689128753e-15 L-1.5,1.891427938628671 L-1.5,3.6880117824992427 L-1.5,5.299663315799234 L-1.5,6.645567600978253 L-1.5,7.658235377170562 L-1.5,8.2868872535455 L-1.5,8.499999999999991 " />
			<path d="M-6.4,-10.7 L-6.4,-10.431728660345511 L-6.4,-9.640366886555885 L-6.4,-8.36559686240792 L-6.4,-6.671340879888449 L-6.4,-4.642556008557873 L-6.4,-2.380973993332566 L-6.4,-1.965558112631502e-15 L-6.4,2.380973993332562 L-6.4,4.64255600855787 L-6.4,6.671340879888446 L-6.4,8.365596862407918 L-6.4,9.640366886555883 L-6.4,10.431728660345511 L-6.4,10.699999999999989 " />
			<path d="M-1.5,8.0 L-1.5,7.799423297454589 L-1.5,7.207750943219353 L-1.5,6.254651859744238 L-1.5,4.987918414869869 L-1.5,3.4710699129404654 L-1.5,1.7801674716505156 L-1.5,4.898587196589413e-16 L-1.5,-1.7801674716505147 L-1.5,-3.4710699129404645 L-1.5,-4.987918414869868 L-1.5,-6.2546518597442375 L-1.5,-7.207750943219352 L-1.5,-7.799423297454589 L-1.5,-7.9999999999999964 " />
			<path d="M-1.5,-8.0 L-1.5,-7.799423297454589 L-1.5,-7.207750943219353 L-1.5,-6.254651859744239 L-1.5,-4.987918414869869 L-1.5,-3.4710699129404663 L-1.5,-1.7801674716505167 L-1.5,-1.4695761589768238e-15 L-1.5,1.7801674716505138 L-1.5,3.4710699129404636 L-1.5,4.987918414869867 L-1.5,6.2546518597442375 L-1.5,7.207750943219352 L-1.5,7.799423297454588 L-1.5,7.999999999999992 " />
			<path d="M-6.4,9.90000000000005 L-6.4,9.651786330600103 L-6.4,8.919591792234 L-6.4,7.7401316764335455 L-6.4,6.172549038401513 L-6.4,4.295449017263877 L-6.4,2.202957246167564 L-6.4,5.202102724602983e-14 L-6.4,-2.2029572461674602 L-6.4,-4.295449017263773 L-6.4,-6.172549038401409 L-6.4,-7.740131676433442 L-6.4,-8.919591792233895 L-6.4,-9.6517863306 L-6.4,-9.899999999999942 " />
			<path d="M-6.4,-9.899999999999947 L-6.4,-9.6517863306 L-6.4,-8.919591792233897 L-6.4,-7.740131676433443 L-6.4,-6.17254903840141 L-6.4,-4.295449017263775 L-6.4,-2.2029572461674625 L-6.4,4.959622658371807e-14 L-6.4,2.202957246167562 L-6.4,4.295449017263874 L-6.4,6.172549038401511 L-6.4,7.740131676433545 L-6.4,8.919591792233998 L-6.4,9.651786330600103 L-6.4,9.90000000000004 " />
			<path d="M-1.5,8.0 L-9.0,8.0 " />
			<path d="M-9.0,8.0 L-9.0,7.799423297454589 L-9.0,7.207750943219353 L-9.0,6.254651859744238 L-9.0,4.987918414869869 L-9.0,3.4710699129404654 L-9.0,1.7801674716505156 L-9.0,4.898587196589413e-16 L-9.0,-1.7801674716505147 L-9.0,-3.4710699129404645 L-9.0,-4.987918414869868 L-9.0,-6.2546518597442375 L-9.0,-7.207750943219352 L-9.0,-7.799423297454589 L-9.0,-7.9999999999999964 " />
			<path d="M-9.0,-8.0 L-9.0,-7.799423297454589 L-9.0,-7.207750943219353 L-9.0,-6.254651859744239 L-9.0,-4.987918414869869 L-9.0,-3.4710699129404663 L-9.0,-1.7801674716505167 L-9.0,-1.4695761589768238e-15 L-9.0,1.7801674716505138 L-9.0,3.4710699129404636 L-9.0,4.987918414869867 L-9.0,6.2546518597442375 L-9.0,7.207750943219352 L-9.0,7.799423297454588 L-9.0,7.999999999999992 " />
			<path d="M-8.4,9.90000000000005 L-8.4,9.651786330600103 L-8.4,8.919591792234 L-8.4,7.7401316764335455 L-8.4,6.172549038401513 L-8.4,4.295449017263877 L-8.4,2.202957246167564 L-8.4,5.202102724602983e-14 L-8.4,-2.2029572461674602 L-8.4,-4.295449017263773 L-8.4,-6.172549038401409 L-8.4,-7.740131676433442 L-8.4,-8.919591792233895 L-8.4,-9.6517863306 L-8.4,-9.899999999999942 " />
			<path d="M-8.4,-9.899999999999947 L-8.4,-9.6517863306 L-8.4,-8.919591792233897 L-8.4,-7.740131676433443 L-8.4,-6.17254903840141 L-8.4,-4.295449017263775 L-8.4,-2.2029572461674625 L-8.4,4.959622658371807e-14 L-8.4,2.202957246167562 L-8.4,4.295449017263874 L-8.4,6.172549038401511 L-8.4,7.740131676433545 L-8.4,8.919591792233998 L-8.4,9.651786330600103 L-8.4,9.90000000000004 " />
			<path d="M-9.0,10.7 L-9.0,10.431728660345511 L-9.0,9.640366886555885 L-9.0,8.365596862407918 L-9.0,6.671340879888449 L-9.0,4.6425560085578725 L-9.0,2.3809739933325647 L-9.0,6.55186037543834e-16 L-9.0,-2.3809739933325633 L-9.0,-4.642556008557871 L-9.0,-6.671340879888448 L-9.0,-8.365596862407918 L-9.0,-9.640366886555883 L-9.0,-10.431728660345511 L-9.0,-10.699999999999994 " />
			<path d="M-8.4,-10.7 L-8.4,-10.431728660345511 L-8.4,-9.640366886555885 L-8.4,-8.36559686240792 L-8.4,-6.671340879888449 L-8.4,-4.642556008557873 L-8.4,-2.380973993332566 L-8.4,-1.965558112631502e-15 L-8.4,2.380973993332562 L-8.4,4.64255600855787 L-8.4,6.671340879888446 L-8.4,8.365596862407918 L-8.4,9.640366886555883 L-8.4,10.431728660345511 L-8.4,10.699999999999989 " />
			<path d="M-1.5,-8.5 L0.0,-8.5 " />
			<path d="M-9.0,-8.0 L-1.5,-8.0 " />

       </g>

       <!-- solid lines -->
       <g  stroke="rgb(200,200,200)" fill="none">
			<path d="M0.0,12.5 L-5.0,12.5 " />
			<path d="M0.0,-12.5 L0.0,-12.186598902272795 L0.0,-11.262110848780239 L0.0,-9.772893530850373 L0.0,-7.79362252323417 L0.0,-5.4235467389694785 L0.0,-2.7815116744539323 L0.0,-2.296212748401287e-15 L0.0,2.781511674453928 L0.0,5.423546738969474 L0.0,7.793622523234167 L0.0,9.772893530850371 L0.0,11.262110848780239 L0.0,12.186598902272793 L0.0,12.499999999999988 " />
			<path d="M-5.0,-12.5 L-5.0,-12.186598902272795 L-5.0,-11.262110848780239 L-5.0,-9.772893530850373 L-5.0,-7.79362252323417 L-5.0,-5.4235467389694785 L-5.0,-2.7815116744539323 L-5.0,-2.296212748401287e-15 L-5.0,2.781511674453928 L-5.0,5.423546738969474 L-5.0,7.793622523234167 L-5.0,9.772893530850371 L-5.0,11.262110848780239 L-5.0,12.186598902272793 L-5.0,12.499999999999988 " />
			<path d="M-5.000000000000001,10.7 L-6.4,10.7 " />
			<path d="M-6.4,10.7 L-6.4,10.431728660345511 L-6.4,9.640366886555885 L-6.4,8.365596862407918 L-6.4,6.671340879888449 L-6.4,4.6425560085578725 L-6.4,2.3809739933325647 L-6.4,6.55186037543834e-16 L-6.4,-2.3809739933325633 L-6.4,-4.642556008557871 L-6.4,-6.671340879888448 L-6.4,-8.365596862407918 L-6.4,-9.640366886555883 L-6.4,-10.431728660345511 L-6.4,-10.699999999999994 " />
			<path d="M-6.4,9.90000000000005 L-8.4,9.90000000000005 " />
			<path d="M-9.0,-10.7 L-9.0,-10.431728660345511 L-9.0,-9.640366886555885 L-9.0,-8.36559686240792 L-9.0,-6.671340879888449 L-9.0,-4.642556008557873 L-9.0,-2.380973993332566 L-9.0,-1.965558112631502e-15 L-9.0,2.380973993332562 L-9.0,4.64255600855787 L-9.0,6.671340879888446 L-9.0,8.365596862407918 L-9.0,9.640366886555883 L-9.0,10.431728660345511 L-9.0,10.699999999999989 " />
			<path d="M-8.4,10.7 L-8.4,10.431728660345511 L-8.4,9.640366886555885 L-8.4,8.365596862407918 L-8.4,6.671340879888449 L-8.4,4.6425560085578725 L-8.4,2.3809739933325647 L-8.4,6.55186037543834e-16 L-8.4,-2.3809739933325633 L-8.4,-4.642556008557871 L-8.4,-6.671340879888448 L-8.4,-8.365596862407918 L-8.4,-9.640366886555883 L-8.4,-10.431728660345511 L-8.4,-10.699999999999994 " />
			<path d="M-8.4,10.7 L-9.0,10.7 " />
			<path d="M-5.0,-12.5 L0.0,-12.5 " />
			<path d="M-6.4,-10.7 L-5.000000000000001,-10.7 " />
			<path d="M-8.4,-9.899999999999947 L-6.4,-9.899999999999947 " />
			<path d="M-9.0,-10.7 L-8.4,-10.7 " />

       </g>
    </g>
    
</svg>
